<?xml version="1.0" encoding="iso-8859-1"?>
<!-- Generator: Adobe Illustrator 16.0.0, SVG Export Plug-In . SVG Version: 6.00 Build 0)  -->
<!DOCTYPE svg PUBLIC "-//W3C//DTD SVG 1.1//EN" "http://www.w3.org/Graphics/SVG/1.1/DTD/svg11.dtd">
<svg version="1.1" id="Logo_Final" xmlns="http://www.w3.org/2000/svg" xmlns:xlink="http://www.w3.org/1999/xlink" x="0px" y="0px"
	 width="448.018px" height="109.104px" viewBox="0 0 448.018 109.104" style="enable-background:new 0 0 448.018 109.104;"
	 xml:space="preserve">
<rect x="2284.729" y="710.886" width="792" height="611.999"/>
<rect x="1331.899" y="-257.528" style="fill:#281C51;" width="792" height="611.999"/>
<g>
	<path style="fill:#EF5592;" d="M1888.413,70.342v7.938h-7.938v-7.938h-7.937v-7.895h-7.938v-7.896h-7.936v-7.896h-7.94v-7.896
		h0.003v-7.895h-0.003v-7.896h7.94V15.07h7.936V7.176h7.938v-7.896h7.937v-7.938h7.938v7.938v7.896h-7.938v7.895h-7.937v7.896
		h-7.938v7.896h-7.936v7.895h7.936v7.896h7.938v7.896h7.937v7.896h7.938V70.342z M1951.908,38.76v7.895h-7.938v7.896h-7.936v7.896
		h-7.938v7.895h-7.937v7.938h-7.938v-7.938v-7.895h7.938v-7.896h7.937v-7.896h7.938V38.76h7.936v-7.896h-7.936v-7.896h-7.938v-7.895
		h-7.937V7.176h-7.938v-7.896v-7.938h7.938v7.938h7.937v7.896h7.938v7.896h7.936v7.895h7.938v7.896V38.76z"/>
	<g>
		<g>
			<g>
				<g>
					<path style="fill:#FFFFFF;" d="M1545.242,76.734c-22.802,0-41.352-18.551-41.352-41.35c0-22.801,18.55-41.352,41.352-41.352
						c12.313,0,23.9,5.432,31.787,14.902c2.277,2.736,1.906,6.803-0.831,9.08s-6.798,1.906-9.079-0.828
						c-5.429-6.521-13.402-10.262-21.877-10.262c-15.693,0-28.459,12.768-28.459,28.459s12.766,28.457,28.459,28.457
						c7.991,0,15.391-3.223,20.837-9.076c2.426-2.609,6.506-2.754,9.113-0.328c2.605,2.426,2.752,6.504,0.328,9.109
						C1567.722,71.93,1556.686,76.734,1545.242,76.734z"/>
				</g>
			</g>
			<g>
				<g>
					<path style="fill:#FFFFFF;" d="M1618.087,66.98c-17.423,0-31.597-14.176-31.597-31.596c0-17.422,14.174-31.596,31.597-31.596
						c17.422,0,31.596,14.174,31.596,31.596C1649.683,52.805,1635.509,66.98,1618.087,66.98z M1618.087,16.682
						c-10.313,0-18.704,8.391-18.704,18.703s8.391,18.701,18.704,18.701s18.703-8.389,18.703-18.701S1628.4,16.682,1618.087,16.682z
						"/>
				</g>
			</g>
			<g>
				<g>
					<path style="fill:#FFFFFF;" d="M1815.382,76.734c-1.926,0-3.794-0.863-5.042-2.426l-45.101-56.553v52.533
						c0,3.561-2.885,6.445-6.446,6.445c-3.56,0-6.446-2.885-6.446-6.445V-0.668c0-2.74,1.732-5.18,4.318-6.086
						c2.585-0.902,5.458-0.076,7.169,2.066l45.1,56.555V0.66c0-3.561,2.887-6.447,6.446-6.447c3.561,0,6.446,2.887,6.446,6.447
						v69.629c0,2.738-1.731,5.18-4.316,6.084C1816.811,76.617,1816.095,76.734,1815.382,76.734z"/>
				</g>
			</g>
			<path style="fill:#FFFFFF;" d="M1697.728-5.754c-1.393-0.141-2.812-0.213-4.219-0.213h-23.526c-3.56,0-6.447,2.887-6.447,6.445
				v69.811c0,3.561,2.888,6.445,6.447,6.445c3.561,0,6.446-2.885,6.446-6.445V6.926h17.08c0.974,0,1.955,0.051,2.917,0.148
				c14.562,1.477,25.543,13.65,25.543,28.311c0,15.691-12.768,28.457-28.46,28.457h-3.143c-3.56,0-6.446,2.887-6.446,6.447
				s2.887,6.445,6.446,6.445h3.143c22.801,0,41.353-18.551,41.353-41.35C1734.861,14.08,1718.897-3.604,1697.728-5.754z"/>
		</g>
		<g>
			<g>
				<path style="fill:#C4C5C7;" d="M1664.287,87.695h2.963l2.604,8.514l2.819-8.549h2.371l2.819,8.549l2.604-8.514h2.892
					l-4.293,12.662h-2.406l-2.838-8.227l-2.837,8.227h-2.407L1664.287,87.695z"/>
				<path style="fill:#CCCCCC;" d="M1696.18,87.695h9.482v2.461h-6.735v2.551h5.927v2.459h-5.927v2.641h6.825v2.461h-9.572V87.695z"
					/>
				<path style="fill:#C4C5C7;" d="M1718.985,87.695h5.837c1.437,0,2.567,0.395,3.286,1.113c0.574,0.574,0.862,1.275,0.862,2.137
					v0.037c0,1.418-0.755,2.209-1.652,2.711c1.454,0.557,2.353,1.402,2.353,3.09v0.035c0,2.299-1.868,3.449-4.705,3.449h-5.98
					V87.695z M1724.229,92.777c1.221,0,1.993-0.395,1.993-1.328v-0.037c0-0.826-0.646-1.293-1.813-1.293h-2.73v2.658H1724.229z
					 M1724.966,97.842c1.221,0,1.957-0.43,1.957-1.363v-0.037c0-0.844-0.628-1.365-2.047-1.365h-3.197v2.766H1724.966z"/>
				<path style="fill:#C4C5C7;" d="M1742.725,87.695h2.766v10.057h6.269v2.516h-9.034V87.695z"/>
				<path style="fill:#C4C5C7;" d="M1768.925,87.605h2.551l5.387,12.662h-2.891l-1.149-2.82h-5.316l-1.149,2.82h-2.819
					L1768.925,87.605z M1771.835,95.006l-1.671-4.078l-1.671,4.078H1771.835z"/>
				<path style="fill:#C4C5C7;" d="M1789.575,87.695h5.837c1.437,0,2.567,0.395,3.286,1.113c0.574,0.574,0.862,1.275,0.862,2.137
					v0.037c0,1.418-0.755,2.209-1.652,2.711c1.454,0.557,2.353,1.402,2.353,3.09v0.035c0,2.299-1.867,3.449-4.705,3.449h-5.98
					V87.695z M1794.819,92.777c1.221,0,1.993-0.395,1.993-1.328v-0.037c0-0.826-0.646-1.293-1.813-1.293h-2.73v2.658H1794.819z
					 M1795.556,97.842c1.221,0,1.957-0.43,1.957-1.363v-0.037c0-0.844-0.628-1.365-2.047-1.365h-3.197v2.766H1795.556z"/>
				<path style="fill:#C4C5C7;" d="M1812.452,98.436l1.635-1.957c1.131,0.934,2.316,1.525,3.754,1.525
					c1.131,0,1.812-0.449,1.812-1.186v-0.035c0-0.701-0.43-1.061-2.531-1.6c-2.533-0.646-4.167-1.346-4.167-3.842v-0.037
					c0-2.281,1.832-3.789,4.399-3.789c1.832,0,3.395,0.574,4.67,1.598l-1.437,2.084c-1.113-0.771-2.209-1.238-3.269-1.238
					s-1.616,0.484-1.616,1.096v0.035c0,0.826,0.538,1.096,2.712,1.652c2.55,0.664,3.986,1.58,3.986,3.771v0.035
					c0,2.496-1.903,3.898-4.615,3.898C1815.882,100.447,1813.961,99.781,1812.452,98.436z"/>
			</g>
		</g>
	</g>
</g>
<rect x="1888.411" y="15.072" style="fill:#6DCFF6;" width="23.813" height="7.895"/>
<rect x="1880.475" y="30.863" style="fill:#6DCFF6;" width="39.684" height="7.895"/>
<rect x="1888.411" y="46.654" style="fill:#6DCFF6;" width="23.813" height="7.896"/>
<g>
	<g>
		<path style="fill:#281C51;" d="M1888.413,1038.756v7.938h-7.938v-7.938h-7.937v-7.895h-7.938v-7.896h-7.936v-7.896h-7.94v-7.896
			h0.003v-7.895h-0.003v-7.896h7.94v-7.896h7.936v-7.895h7.938v-7.896h7.937v-7.938h7.938v7.938v7.896h-7.938v7.895h-7.937v7.896
			h-7.938v7.896h-7.936v7.895h7.936v7.896h7.938v7.896h7.937v7.896h7.938V1038.756z M1951.908,1007.174v7.895h-7.938v7.896h-7.936
			v7.896h-7.938v7.895h-7.937v7.938h-7.938v-7.938v-7.895h7.938v-7.896h7.937v-7.896h7.938v-7.895h7.936v-7.896h-7.936v-7.896
			h-7.938v-7.895h-7.937v-7.896h-7.938v-7.896v-7.938h7.938v7.938h7.937v7.896h7.938v7.896h7.936v7.895h7.938v7.896V1007.174z"/>
		<g>
			<g>
				<g>
					<g>
						<path style="fill:#281C51;" d="M1545.242,1045.148c-22.802,0-41.352-18.551-41.352-41.35c0-22.801,18.55-41.352,41.352-41.352
							c12.313,0,23.9,5.432,31.787,14.902c2.277,2.736,1.906,6.803-0.831,9.08s-6.798,1.906-9.079-0.828
							c-5.429-6.521-13.402-10.262-21.877-10.262c-15.693,0-28.459,12.768-28.459,28.459s12.766,28.457,28.459,28.457
							c7.991,0,15.391-3.223,20.837-9.076c2.426-2.609,6.506-2.754,9.113-0.328c2.605,2.426,2.752,6.504,0.328,9.109
							C1567.722,1040.344,1556.686,1045.148,1545.242,1045.148z"/>
					</g>
				</g>
				<g>
					<g>
						<path style="fill:#281C51;" d="M1618.087,1035.395c-17.423,0-31.597-14.176-31.597-31.596
							c0-17.422,14.174-31.596,31.597-31.596c17.422,0,31.596,14.174,31.596,31.596
							C1649.683,1021.219,1635.509,1035.395,1618.087,1035.395z M1618.087,985.096c-10.313,0-18.704,8.391-18.704,18.703
							s8.391,18.701,18.704,18.701s18.703-8.389,18.703-18.701S1628.4,985.096,1618.087,985.096z"/>
					</g>
				</g>
				<g>
					<g>
						<path style="fill:#281C51;" d="M1815.382,1045.148c-1.926,0-3.794-0.863-5.042-2.426l-45.101-56.553v52.533
							c0,3.561-2.885,6.445-6.446,6.445c-3.56,0-6.446-2.885-6.446-6.445v-70.957c0-2.74,1.732-5.18,4.318-6.086
							c2.585-0.902,5.458-0.076,7.169,2.066l45.1,56.555v-51.207c0-3.561,2.887-6.447,6.446-6.447c3.561,0,6.446,2.887,6.446,6.447
							v69.629c0,2.738-1.731,5.18-4.316,6.084C1816.811,1045.031,1816.095,1045.148,1815.382,1045.148z"/>
					</g>
				</g>
				<path style="fill:#281C51;" d="M1697.728,962.66c-1.393-0.141-2.812-0.213-4.219-0.213h-23.526c-3.56,0-6.447,2.887-6.447,6.445
					v69.811c0,3.561,2.888,6.445,6.447,6.445c3.561,0,6.446-2.885,6.446-6.445V975.34h17.08c0.974,0,1.955,0.051,2.917,0.148
					c14.562,1.477,25.543,13.65,25.543,28.311c0,15.691-12.768,28.457-28.46,28.457h-3.143c-3.56,0-6.446,2.887-6.446,6.447
					s2.887,6.445,6.446,6.445h3.143c22.801,0,41.353-18.551,41.353-41.35C1734.861,982.494,1718.897,964.811,1697.728,962.66z"/>
			</g>
			<g>
				<g>
					<path style="fill:#281C51;" d="M1664.287,1056.109h2.963l2.604,8.514l2.819-8.549h2.371l2.819,8.549l2.604-8.514h2.892
						l-4.293,12.662h-2.406l-2.838-8.227l-2.837,8.227h-2.407L1664.287,1056.109z"/>
					<path style="fill:#281C51;" d="M1696.18,1056.109h9.482v2.461h-6.735v2.551h5.927v2.459h-5.927v2.641h6.825v2.461h-9.572
						V1056.109z"/>
					<path style="fill:#281C51;" d="M1718.985,1056.109h5.837c1.437,0,2.567,0.395,3.286,1.113c0.574,0.574,0.862,1.275,0.862,2.137
						v0.037c0,1.418-0.755,2.209-1.652,2.711c1.454,0.557,2.353,1.402,2.353,3.09v0.035c0,2.299-1.868,3.449-4.705,3.449h-5.98
						V1056.109z M1724.229,1061.191c1.221,0,1.993-0.395,1.993-1.328v-0.037c0-0.826-0.646-1.293-1.813-1.293h-2.73v2.658H1724.229z
						 M1724.966,1066.256c1.221,0,1.957-0.43,1.957-1.363v-0.037c0-0.844-0.628-1.365-2.047-1.365h-3.197v2.766H1724.966z"/>
					<path style="fill:#281C51;" d="M1742.725,1056.109h2.766v10.057h6.269v2.516h-9.034V1056.109z"/>
					<path style="fill:#281C51;" d="M1768.925,1056.02h2.551l5.387,12.662h-2.891l-1.149-2.82h-5.316l-1.149,2.82h-2.819
						L1768.925,1056.02z M1771.835,1063.42l-1.671-4.078l-1.671,4.078H1771.835z"/>
					<path style="fill:#281C51;" d="M1789.575,1056.109h5.837c1.437,0,2.567,0.395,3.286,1.113c0.574,0.574,0.862,1.275,0.862,2.137
						v0.037c0,1.418-0.755,2.209-1.652,2.711c1.454,0.557,2.353,1.402,2.353,3.09v0.035c0,2.299-1.867,3.449-4.705,3.449h-5.98
						V1056.109z M1794.819,1061.191c1.221,0,1.993-0.395,1.993-1.328v-0.037c0-0.826-0.646-1.293-1.813-1.293h-2.73v2.658H1794.819z
						 M1795.556,1066.256c1.221,0,1.957-0.43,1.957-1.363v-0.037c0-0.844-0.628-1.365-2.047-1.365h-3.197v2.766H1795.556z"/>
					<path style="fill:#281C51;" d="M1812.452,1066.85l1.635-1.957c1.131,0.934,2.316,1.525,3.754,1.525
						c1.131,0,1.812-0.449,1.812-1.186v-0.035c0-0.701-0.43-1.061-2.531-1.6c-2.533-0.646-4.167-1.346-4.167-3.842v-0.037
						c0-2.281,1.832-3.789,4.399-3.789c1.832,0,3.395,0.574,4.67,1.598l-1.437,2.084c-1.113-0.771-2.209-1.238-3.269-1.238
						s-1.616,0.484-1.616,1.096v0.035c0,0.826,0.538,1.096,2.712,1.652c2.55,0.664,3.986,1.58,3.986,3.771v0.035
						c0,2.496-1.903,3.898-4.615,3.898C1815.882,1068.861,1813.961,1068.195,1812.452,1066.85z"/>
				</g>
			</g>
		</g>
	</g>
	<rect x="1888.411" y="983.486" style="fill:#281C51;" width="23.813" height="7.895"/>
	<rect x="1880.475" y="999.277" style="fill:#281C51;" width="39.684" height="7.895"/>
	<rect x="1888.411" y="1015.068" style="fill:#281C51;" width="23.813" height="7.896"/>
</g>
<g>
	<g>
		<path style="fill:#EF5592;" d="M2841.243,70.343v7.938h-7.938v-7.938h-7.937v-7.895h-7.938v-7.896h-7.936v-7.896h-7.94v-7.896
			h0.003v-7.895h-0.003v-7.896h7.94v-7.896h7.936V7.177h7.938V-0.72h7.937v-7.938h7.938v7.938v7.896h-7.938v7.895h-7.937v7.896
			h-7.938v7.896h-7.936v7.895h7.936v7.896h7.938v7.896h7.937v7.896h7.938V70.343z M2904.738,38.761v7.895h-7.938v7.896h-7.936v7.896
			h-7.938v7.895h-7.937v7.938h-7.938v-7.938v-7.895h7.938v-7.896h7.937v-7.896h7.938v-7.895h7.936v-7.896h-7.936v-7.896h-7.938
			v-7.895h-7.937V7.177h-7.938V-0.72v-7.938h7.938v7.938h7.937v7.896h7.938v7.896h7.936v7.895h7.938v7.896V38.761z"/>
		<g>
			<g>
				<g>
					<g>
						<path style="fill:#281C51;" d="M2498.072,76.735c-22.802,0-41.352-18.551-41.352-41.352c0-22.799,18.55-41.352,41.352-41.352
							c12.313,0,23.9,5.434,31.787,14.904c2.277,2.736,1.906,6.801-0.831,9.08c-2.737,2.275-6.798,1.904-9.079-0.83
							c-5.429-6.521-13.402-10.262-21.877-10.262c-15.693,0-28.459,12.768-28.459,28.459c0,15.693,12.766,28.459,28.459,28.459
							c7.991,0,15.391-3.223,20.837-9.076c2.426-2.609,6.506-2.754,9.113-0.328c2.605,2.426,2.752,6.504,0.328,9.109
							C2520.552,71.931,2509.516,76.735,2498.072,76.735z"/>
					</g>
				</g>
				<g>
					<g>
						<path style="fill:#281C51;" d="M2570.917,66.981c-17.423,0-31.597-14.176-31.597-31.598c0-17.42,14.174-31.594,31.597-31.594
							c17.422,0,31.596,14.174,31.596,31.594C2602.513,52.806,2588.339,66.981,2570.917,66.981z M2570.917,16.683
							c-10.313,0-18.704,8.391-18.704,18.701c0,10.314,8.391,18.703,18.704,18.703s18.703-8.389,18.703-18.703
							C2589.62,25.073,2581.23,16.683,2570.917,16.683z"/>
					</g>
				</g>
				<g>
					<g>
						<path style="fill:#281C51;" d="M2768.212,76.735c-1.926,0-3.794-0.863-5.042-2.426l-45.101-56.555V70.29
							c0,3.561-2.885,6.445-6.446,6.445c-3.56,0-6.446-2.885-6.446-6.445V-0.669c0-2.738,1.732-5.18,4.318-6.084
							c2.585-0.902,5.458-0.076,7.169,2.064l45.1,56.557V0.659c0-3.559,2.887-6.445,6.446-6.445c3.561,0,6.446,2.887,6.446,6.445
							V70.29c0,2.738-1.731,5.18-4.316,6.084C2769.641,76.618,2768.925,76.735,2768.212,76.735z"/>
					</g>
				</g>
				<path style="fill:#281C51;" d="M2650.558-5.753c-1.393-0.141-2.812-0.215-4.219-0.215h-23.526c-3.56,0-6.447,2.887-6.447,6.447
					V70.29c0,3.561,2.888,6.445,6.447,6.445c3.561,0,6.446-2.885,6.446-6.445V6.925h17.08c0.974,0,1.955,0.051,2.917,0.148
					c14.562,1.479,25.543,13.65,25.543,28.311c0,15.693-12.768,28.459-28.46,28.459h-3.143c-3.56,0-6.446,2.887-6.446,6.447
					s2.887,6.445,6.446,6.445h3.143c22.801,0,41.353-18.551,41.353-41.352C2687.691,14.081,2671.728-3.604,2650.558-5.753z"/>
			</g>
			<g>
				<g>
					<path style="fill:#939598;" d="M2617.117,87.696h2.963l2.604,8.512l2.819-8.549h2.371l2.819,8.549l2.604-8.512h2.892
						l-4.293,12.66h-2.406l-2.838-8.225l-2.837,8.225h-2.407L2617.117,87.696z"/>
					<path style="fill:#939598;" d="M2649.01,87.696h9.482v2.459h-6.735v2.551h5.927v2.461h-5.927v2.639h6.825v2.461h-9.572V87.696z
						"/>
					<path style="fill:#939598;" d="M2671.815,87.696h5.837c1.437,0,2.567,0.395,3.286,1.113c0.574,0.574,0.862,1.275,0.862,2.137
						v0.035c0,1.42-0.755,2.209-1.652,2.713c1.454,0.557,2.353,1.4,2.353,3.088v0.037c0,2.299-1.868,3.447-4.705,3.447h-5.98V87.696
						z M2677.06,92.778c1.221,0,1.993-0.395,1.993-1.33v-0.035c0-0.826-0.646-1.293-1.813-1.293h-2.73v2.658H2677.06z
						 M2677.796,97.843c1.221,0,1.957-0.432,1.957-1.365v-0.035c0-0.846-0.628-1.365-2.047-1.365h-3.197v2.766H2677.796z"/>
					<path style="fill:#939598;" d="M2695.555,87.696h2.766v10.057h6.269v2.514h-9.034V87.696z"/>
					<path style="fill:#939598;" d="M2721.755,87.606h2.551l5.387,12.66h-2.891l-1.149-2.818h-5.316l-1.149,2.818h-2.819
						L2721.755,87.606z M2724.665,95.005l-1.671-4.076l-1.671,4.076H2724.665z"/>
					<path style="fill:#939598;" d="M2742.405,87.696h5.837c1.437,0,2.567,0.395,3.286,1.113c0.574,0.574,0.862,1.275,0.862,2.137
						v0.035c0,1.42-0.755,2.209-1.652,2.713c1.454,0.557,2.353,1.4,2.353,3.088v0.037c0,2.299-1.867,3.447-4.705,3.447h-5.98V87.696
						z M2747.649,92.778c1.221,0,1.993-0.395,1.993-1.33v-0.035c0-0.826-0.646-1.293-1.813-1.293h-2.73v2.658H2747.649z
						 M2748.386,97.843c1.221,0,1.957-0.432,1.957-1.365v-0.035c0-0.846-0.628-1.365-2.047-1.365h-3.197v2.766H2748.386z"/>
					<path style="fill:#939598;" d="M2765.282,98.435l1.635-1.957c1.131,0.934,2.316,1.527,3.754,1.527
						c1.131,0,1.812-0.449,1.812-1.186v-0.037c0-0.699-0.43-1.059-2.531-1.598c-2.533-0.646-4.167-1.348-4.167-3.844v-0.035
						c0-2.281,1.832-3.789,4.399-3.789c1.832,0,3.395,0.574,4.67,1.598l-1.437,2.084c-1.113-0.773-2.209-1.24-3.269-1.24
						s-1.616,0.484-1.616,1.096v0.035c0,0.826,0.538,1.096,2.712,1.652c2.55,0.666,3.986,1.582,3.986,3.771v0.037
						c0,2.496-1.903,3.896-4.615,3.896C2768.712,100.446,2766.791,99.782,2765.282,98.435z"/>
				</g>
			</g>
		</g>
	</g>
	<rect x="2841.241" y="15.073" style="fill:#6DCFF6;" width="23.813" height="7.895"/>
	<rect x="2833.305" y="30.864" style="fill:#6DCFF6;" width="39.684" height="7.895"/>
	<rect x="2841.241" y="46.655" style="fill:#6DCFF6;" width="23.813" height="7.896"/>
</g>
<g>
	<g>
		<path style="fill:#FFFFFF;" d="M2841.243,1038.757v7.938h-7.938v-7.938h-7.937v-7.895h-7.938v-7.896h-7.936v-7.896h-7.94v-7.896
			h0.003v-7.895h-0.003v-7.896h7.94v-7.896h7.936v-7.895h7.938v-7.896h7.937v-7.938h7.938v7.938v7.896h-7.938v7.895h-7.937v7.896
			h-7.938v7.896h-7.936v7.895h7.936v7.896h7.938v7.896h7.937v7.896h7.938V1038.757z M2904.738,1007.175v7.895h-7.938v7.896h-7.936
			v7.896h-7.938v7.895h-7.937v7.938h-7.938v-7.938v-7.895h7.938v-7.896h7.937v-7.896h7.938v-7.895h7.936v-7.896h-7.936v-7.896
			h-7.938v-7.895h-7.937v-7.896h-7.938v-7.896v-7.938h7.938v7.938h7.937v7.896h7.938v7.896h7.936v7.895h7.938v7.896V1007.175z"/>
		<g>
			<g>
				<g>
					<g>
						<path style="fill:#FFFFFF;" d="M2498.072,1045.149c-22.802,0-41.352-18.551-41.352-41.352
							c0-22.799,18.55-41.352,41.352-41.352c12.313,0,23.9,5.434,31.787,14.904c2.277,2.736,1.906,6.801-0.831,9.08
							c-2.737,2.275-6.798,1.904-9.079-0.83c-5.429-6.521-13.402-10.262-21.877-10.262c-15.693,0-28.459,12.768-28.459,28.459
							c0,15.693,12.766,28.459,28.459,28.459c7.991,0,15.391-3.223,20.837-9.076c2.426-2.609,6.506-2.754,9.113-0.328
							c2.605,2.426,2.752,6.504,0.328,9.109C2520.552,1040.345,2509.516,1045.149,2498.072,1045.149z"/>
					</g>
				</g>
				<g>
					<g>
						<path style="fill:#FFFFFF;" d="M2570.917,1035.396c-17.423,0-31.597-14.176-31.597-31.598
							c0-17.42,14.174-31.594,31.597-31.594c17.422,0,31.596,14.174,31.596,31.594
							C2602.513,1021.22,2588.339,1035.396,2570.917,1035.396z M2570.917,985.097c-10.313,0-18.704,8.391-18.704,18.701
							c0,10.314,8.391,18.703,18.704,18.703s18.703-8.389,18.703-18.703C2589.62,993.487,2581.23,985.097,2570.917,985.097z"/>
					</g>
				</g>
				<g>
					<g>
						<path style="fill:#FFFFFF;" d="M2768.212,1045.149c-1.926,0-3.794-0.863-5.042-2.426l-45.101-56.555v52.535
							c0,3.561-2.885,6.445-6.446,6.445c-3.56,0-6.446-2.885-6.446-6.445v-70.959c0-2.738,1.732-5.18,4.318-6.084
							c2.585-0.902,5.458-0.076,7.169,2.064l45.1,56.557v-51.209c0-3.559,2.887-6.445,6.446-6.445c3.561,0,6.446,2.887,6.446,6.445
							v69.631c0,2.738-1.731,5.18-4.316,6.084C2769.641,1045.032,2768.925,1045.149,2768.212,1045.149z"/>
					</g>
				</g>
				<path style="fill:#FFFFFF;" d="M2650.558,962.661c-1.393-0.141-2.812-0.215-4.219-0.215h-23.526
					c-3.56,0-6.447,2.887-6.447,6.447v69.811c0,3.561,2.888,6.445,6.447,6.445c3.561,0,6.446-2.885,6.446-6.445v-63.365h17.08
					c0.974,0,1.955,0.051,2.917,0.148c14.562,1.479,25.543,13.65,25.543,28.311c0,15.693-12.768,28.459-28.46,28.459h-3.143
					c-3.56,0-6.446,2.887-6.446,6.447s2.887,6.445,6.446,6.445h3.143c22.801,0,41.353-18.551,41.353-41.352
					C2687.691,982.495,2671.728,964.81,2650.558,962.661z"/>
			</g>
			<g>
				<g>
					<path style="fill:#FFFFFF;" d="M2617.117,1056.11h2.963l2.604,8.512l2.819-8.549h2.371l2.819,8.549l2.604-8.512h2.892
						l-4.293,12.66h-2.406l-2.838-8.225l-2.837,8.225h-2.407L2617.117,1056.11z"/>
					<path style="fill:#FFFFFF;" d="M2649.01,1056.11h9.482v2.459h-6.735v2.551h5.927v2.461h-5.927v2.639h6.825v2.461h-9.572
						V1056.11z"/>
					<path style="fill:#FFFFFF;" d="M2671.815,1056.11h5.837c1.437,0,2.567,0.395,3.286,1.113c0.574,0.574,0.862,1.275,0.862,2.137
						v0.035c0,1.42-0.755,2.209-1.652,2.713c1.454,0.557,2.353,1.4,2.353,3.088v0.037c0,2.299-1.868,3.447-4.705,3.447h-5.98
						V1056.11z M2677.06,1061.192c1.221,0,1.993-0.395,1.993-1.33v-0.035c0-0.826-0.646-1.293-1.813-1.293h-2.73v2.658H2677.06z
						 M2677.796,1066.257c1.221,0,1.957-0.432,1.957-1.365v-0.035c0-0.846-0.628-1.365-2.047-1.365h-3.197v2.766H2677.796z"/>
					<path style="fill:#FFFFFF;" d="M2695.555,1056.11h2.766v10.057h6.269v2.514h-9.034V1056.11z"/>
					<path style="fill:#FFFFFF;" d="M2721.755,1056.021h2.551l5.387,12.66h-2.891l-1.149-2.818h-5.316l-1.149,2.818h-2.819
						L2721.755,1056.021z M2724.665,1063.419l-1.671-4.076l-1.671,4.076H2724.665z"/>
					<path style="fill:#FFFFFF;" d="M2742.405,1056.11h5.837c1.437,0,2.567,0.395,3.286,1.113c0.574,0.574,0.862,1.275,0.862,2.137
						v0.035c0,1.42-0.755,2.209-1.652,2.713c1.454,0.557,2.353,1.4,2.353,3.088v0.037c0,2.299-1.867,3.447-4.705,3.447h-5.98
						V1056.11z M2747.649,1061.192c1.221,0,1.993-0.395,1.993-1.33v-0.035c0-0.826-0.646-1.293-1.813-1.293h-2.73v2.658H2747.649z
						 M2748.386,1066.257c1.221,0,1.957-0.432,1.957-1.365v-0.035c0-0.846-0.628-1.365-2.047-1.365h-3.197v2.766H2748.386z"/>
					<path style="fill:#FFFFFF;" d="M2765.282,1066.849l1.635-1.957c1.131,0.934,2.316,1.527,3.754,1.527
						c1.131,0,1.812-0.449,1.812-1.186v-0.037c0-0.699-0.43-1.059-2.531-1.598c-2.533-0.646-4.167-1.348-4.167-3.844v-0.035
						c0-2.281,1.832-3.789,4.399-3.789c1.832,0,3.395,0.574,4.67,1.598l-1.437,2.084c-1.113-0.773-2.209-1.24-3.269-1.24
						s-1.616,0.484-1.616,1.096v0.035c0,0.826,0.538,1.096,2.712,1.652c2.55,0.666,3.986,1.582,3.986,3.771v0.037
						c0,2.496-1.903,3.896-4.615,3.896C2768.712,1068.86,2766.791,1068.196,2765.282,1066.849z"/>
				</g>
			</g>
		</g>
	</g>
	<rect x="2841.241" y="983.487" style="fill:#FFFFFF;" width="23.813" height="7.895"/>
	<rect x="2833.305" y="999.278" style="fill:#FFFFFF;" width="39.684" height="7.895"/>
	<rect x="2841.241" y="1015.069" style="fill:#FFFFFF;" width="23.813" height="7.896"/>
</g>
<g>
	<path style="fill:#8F9194;" d="M2520.735,765.808c-0.312,0.408-0.592,0.801-0.84,1.177s-0.463,0.758-0.643,1.146
		s-0.33,0.79-0.449,1.206c-0.121,0.416-0.217,0.864-0.289,1.344c-0.127,0.88-0.119,1.732,0.023,2.557
		c0.145,0.823,0.42,1.588,0.828,2.292l-0.779,0.479c-0.455-0.752-0.771-1.58-0.947-2.484c-0.178-0.903-0.197-1.852-0.061-2.844
		c0.127-0.92,0.406-1.84,0.834-2.76s0.982-1.776,1.662-2.568L2520.735,765.808z"/>
	<path style="fill:#8F9194;" d="M2522.14,765.592h1.15h4.332l-0.154,1.08h-4.322l-0.352,2.532h4.025l-0.156,1.08h-4.027
		l-0.387,2.724h4.545l-0.143,1.08h-4.584h-1.117L2522.14,765.592z"/>
	<path style="fill:#8F9194;" d="M2531.618,769.828c-0.104-0.16-0.242-0.294-0.414-0.402c-0.172-0.107-0.393-0.162-0.666-0.162
		c-0.256,0-0.484,0.055-0.689,0.162c-0.203,0.108-0.318,0.267-0.342,0.474c-0.023,0.169,0.01,0.305,0.102,0.408
		c0.092,0.104,0.209,0.188,0.348,0.252c0.141,0.064,0.291,0.112,0.451,0.145s0.299,0.06,0.42,0.084
		c0.225,0.056,0.432,0.124,0.623,0.204c0.193,0.08,0.355,0.184,0.486,0.312c0.133,0.128,0.227,0.284,0.283,0.468
		c0.055,0.185,0.066,0.408,0.035,0.673c-0.049,0.319-0.154,0.594-0.318,0.821c-0.164,0.229-0.365,0.414-0.605,0.559
		c-0.24,0.144-0.502,0.248-0.787,0.312c-0.283,0.064-0.564,0.096-0.846,0.096c-0.471,0-0.873-0.071-1.205-0.216
		c-0.332-0.144-0.615-0.408-0.846-0.792l0.9-0.672c0.15,0.176,0.328,0.332,0.529,0.468c0.201,0.137,0.457,0.204,0.771,0.204
		c0.281,0,0.551-0.058,0.809-0.174c0.256-0.116,0.406-0.298,0.445-0.546c0.023-0.16-0.006-0.292-0.09-0.396
		c-0.084-0.104-0.193-0.186-0.326-0.245c-0.133-0.061-0.277-0.108-0.434-0.145s-0.291-0.065-0.404-0.09
		c-0.225-0.056-0.438-0.12-0.639-0.192c-0.201-0.071-0.373-0.168-0.518-0.288c-0.145-0.119-0.252-0.271-0.318-0.456
		c-0.068-0.184-0.084-0.411-0.043-0.684c0.039-0.296,0.139-0.554,0.293-0.773c0.156-0.221,0.348-0.402,0.57-0.547
		c0.225-0.144,0.473-0.252,0.744-0.323c0.271-0.072,0.541-0.108,0.805-0.108c0.383,0,0.742,0.072,1.074,0.216
		c0.332,0.145,0.578,0.384,0.738,0.72L2531.618,769.828z"/>
	<path style="fill:#8F9194;" d="M2537.054,769.336h-1.553l-0.354,2.58c-0.025,0.16-0.043,0.318-0.055,0.474
		c-0.012,0.156-0.002,0.296,0.029,0.42c0.033,0.124,0.1,0.225,0.199,0.301c0.1,0.075,0.254,0.113,0.461,0.113
		c0.129,0,0.264-0.012,0.402-0.036c0.141-0.023,0.27-0.067,0.391-0.132l-0.145,0.984c-0.072,0.04-0.154,0.072-0.248,0.096
		c-0.092,0.024-0.184,0.042-0.277,0.054c-0.092,0.013-0.18,0.022-0.264,0.03c-0.086,0.008-0.156,0.012-0.211,0.012
		c-0.42,0-0.734-0.058-0.947-0.174c-0.213-0.115-0.361-0.266-0.445-0.45c-0.086-0.184-0.121-0.39-0.109-0.617
		c0.012-0.229,0.035-0.458,0.066-0.69l0.42-2.964h-1.248l0.133-0.937h1.248l0.227-1.596h1.08l-0.225,1.596h1.557L2537.054,769.336z"
		/>
	<path style="fill:#8F9194;" d="M2538.915,771.64c-0.033,0.248-0.008,0.475,0.072,0.679c0.08,0.203,0.197,0.378,0.355,0.521
		c0.156,0.145,0.346,0.256,0.566,0.336s0.455,0.12,0.703,0.12c0.338,0,0.641-0.078,0.91-0.234c0.27-0.155,0.527-0.361,0.775-0.617
		l0.721,0.624c-0.705,0.775-1.596,1.163-2.676,1.163c-0.449,0-0.842-0.075-1.182-0.228s-0.619-0.362-0.834-0.63
		c-0.217-0.269-0.369-0.584-0.457-0.948s-0.1-0.758-0.035-1.182c0.055-0.424,0.184-0.818,0.383-1.183
		c0.201-0.363,0.451-0.68,0.75-0.947c0.301-0.269,0.641-0.479,1.021-0.63c0.379-0.152,0.781-0.229,1.205-0.229
		c0.504,0,0.918,0.088,1.242,0.264c0.324,0.177,0.578,0.406,0.762,0.69s0.301,0.604,0.348,0.96c0.049,0.356,0.049,0.718,0,1.086
		l-0.061,0.384H2538.915z M2542.466,770.776c0.025-0.24,0.016-0.46-0.023-0.66c-0.041-0.2-0.117-0.374-0.23-0.522
		c-0.111-0.147-0.266-0.264-0.459-0.348s-0.426-0.126-0.701-0.126c-0.266,0-0.516,0.05-0.748,0.149
		c-0.234,0.101-0.441,0.23-0.623,0.391s-0.328,0.338-0.441,0.534c-0.113,0.195-0.182,0.39-0.205,0.582H2542.466z"/>
	<path style="fill:#8F9194;" d="M2548.862,769.336h-1.225l0.133-0.937h1.225l0.18-1.271c0.111-0.76,0.336-1.326,0.674-1.698
		c0.34-0.372,0.863-0.558,1.572-0.558c0.119,0,0.246,0.004,0.377,0.012s0.27,0.032,0.412,0.072l-0.252,0.96
		c-0.096-0.04-0.191-0.068-0.287-0.084s-0.201-0.024-0.312-0.024c-0.199,0-0.363,0.03-0.492,0.09
		c-0.129,0.061-0.232,0.146-0.312,0.259c-0.08,0.111-0.141,0.246-0.186,0.401c-0.043,0.156-0.082,0.334-0.113,0.534l-0.178,1.308
		h1.281l-0.131,0.937h-1.293l-0.652,4.752h-1.08L2548.862,769.336z"/>
	<path style="fill:#8F9194;" d="M2551.897,771.244c0.057-0.416,0.189-0.805,0.396-1.164c0.209-0.36,0.469-0.676,0.781-0.948
		c0.311-0.271,0.66-0.486,1.049-0.642c0.389-0.156,0.795-0.234,1.219-0.234s0.807,0.078,1.152,0.234
		c0.344,0.155,0.633,0.37,0.869,0.642c0.236,0.272,0.406,0.588,0.51,0.948c0.104,0.359,0.129,0.748,0.072,1.164
		c-0.064,0.416-0.197,0.806-0.402,1.17c-0.203,0.364-0.461,0.68-0.773,0.948c-0.312,0.268-0.662,0.479-1.051,0.636
		c-0.387,0.156-0.793,0.233-1.217,0.233s-0.811-0.077-1.158-0.233s-0.639-0.368-0.871-0.636c-0.23-0.269-0.4-0.584-0.51-0.948
		C2551.856,772.05,2551.835,771.66,2551.897,771.244z M2553.05,771.244c-0.039,0.288-0.033,0.554,0.02,0.798
		c0.051,0.244,0.145,0.452,0.281,0.624s0.314,0.308,0.533,0.408c0.221,0.1,0.475,0.149,0.762,0.149c0.289,0,0.555-0.05,0.799-0.149
		c0.244-0.101,0.457-0.236,0.643-0.408c0.184-0.172,0.338-0.38,0.461-0.624c0.125-0.244,0.207-0.51,0.246-0.798
		c0.041-0.288,0.035-0.554-0.018-0.798s-0.148-0.452-0.287-0.624c-0.141-0.172-0.318-0.309-0.535-0.408
		c-0.215-0.101-0.467-0.15-0.756-0.15c-0.287,0-0.555,0.05-0.797,0.15c-0.244,0.1-0.461,0.236-0.648,0.408
		c-0.189,0.172-0.342,0.38-0.463,0.624C2553.171,770.69,2553.091,770.956,2553.05,771.244z"/>
	<path style="fill:#8F9194;" d="M2559.698,768.399h1.08l-0.119,0.877h0.023c0.184-0.305,0.455-0.551,0.816-0.738
		c0.359-0.188,0.76-0.282,1.199-0.282c0.271,0,0.527,0.042,0.768,0.126s0.443,0.214,0.607,0.39c0.162,0.177,0.281,0.402,0.354,0.679
		c0.072,0.275,0.08,0.602,0.023,0.978l-0.504,3.66h-1.08l0.469-3.36c0.031-0.264,0.025-0.489-0.02-0.678
		c-0.043-0.188-0.115-0.34-0.215-0.456s-0.227-0.2-0.379-0.252s-0.311-0.078-0.479-0.078c-0.225,0-0.439,0.036-0.643,0.108
		c-0.205,0.072-0.389,0.186-0.553,0.342s-0.301,0.354-0.414,0.594c-0.111,0.24-0.191,0.524-0.24,0.853l-0.406,2.928h-1.08
		L2559.698,768.399z"/>
	<path style="fill:#8F9194;" d="M2571.278,774.088h-1.08l0.107-0.816h-0.023c-0.256,0.305-0.576,0.54-0.961,0.708
		c-0.383,0.168-0.768,0.252-1.15,0.252c-0.441,0-0.828-0.075-1.164-0.228s-0.611-0.364-0.822-0.636
		c-0.213-0.272-0.363-0.588-0.451-0.948s-0.1-0.752-0.035-1.176c0.057-0.424,0.18-0.818,0.371-1.183
		c0.193-0.363,0.434-0.68,0.721-0.947c0.289-0.269,0.619-0.479,0.996-0.63c0.377-0.152,0.783-0.229,1.225-0.229
		c0.408,0,0.777,0.086,1.109,0.258s0.578,0.406,0.738,0.702h0.023l0.588-4.2h1.08L2571.278,774.088z M2568.446,773.224
		c0.287,0,0.555-0.05,0.799-0.149c0.242-0.101,0.457-0.236,0.641-0.408s0.338-0.38,0.463-0.624c0.123-0.244,0.205-0.51,0.246-0.798
		c0.039-0.288,0.033-0.554-0.018-0.798c-0.053-0.244-0.148-0.452-0.289-0.624s-0.318-0.309-0.533-0.408
		c-0.217-0.101-0.469-0.15-0.756-0.15c-0.289,0-0.555,0.05-0.799,0.15c-0.244,0.1-0.461,0.236-0.648,0.408s-0.342,0.38-0.461,0.624
		c-0.121,0.244-0.201,0.51-0.24,0.798c-0.041,0.288-0.035,0.554,0.018,0.798s0.146,0.452,0.281,0.624
		c0.137,0.172,0.314,0.308,0.535,0.408C2567.903,773.174,2568.159,773.224,2568.446,773.224z"/>
	<path style="fill:#8F9194;" d="M2573.03,771.244c0.057-0.416,0.188-0.805,0.396-1.164c0.207-0.36,0.467-0.676,0.779-0.948
		c0.312-0.271,0.662-0.486,1.051-0.642c0.387-0.156,0.793-0.234,1.217-0.234s0.809,0.078,1.152,0.234
		c0.344,0.155,0.635,0.37,0.871,0.642c0.234,0.272,0.404,0.588,0.51,0.948c0.104,0.359,0.127,0.748,0.072,1.164
		c-0.064,0.416-0.199,0.806-0.402,1.17c-0.205,0.364-0.463,0.68-0.775,0.948c-0.311,0.268-0.662,0.479-1.049,0.636
		c-0.389,0.156-0.795,0.233-1.219,0.233s-0.809-0.077-1.158-0.233c-0.348-0.156-0.637-0.368-0.869-0.636
		c-0.232-0.269-0.402-0.584-0.51-0.948C2572.987,772.05,2572.966,771.66,2573.03,771.244z M2574.183,771.244
		c-0.041,0.288-0.035,0.554,0.018,0.798s0.146,0.452,0.281,0.624c0.137,0.172,0.314,0.308,0.535,0.408
		c0.219,0.1,0.475,0.149,0.762,0.149s0.555-0.05,0.799-0.149c0.242-0.101,0.457-0.236,0.641-0.408s0.338-0.38,0.463-0.624
		c0.123-0.244,0.205-0.51,0.246-0.798c0.039-0.288,0.033-0.554-0.018-0.798c-0.053-0.244-0.148-0.452-0.289-0.624
		s-0.318-0.309-0.533-0.408c-0.217-0.101-0.469-0.15-0.756-0.15c-0.289,0-0.555,0.05-0.799,0.15c-0.244,0.1-0.461,0.236-0.648,0.408
		s-0.342,0.38-0.461,0.624C2574.302,770.69,2574.222,770.956,2574.183,771.244z"/>
	<path style="fill:#8F9194;" d="M2584.167,768.399h1.08l-0.121,0.877h0.023c0.186-0.305,0.457-0.551,0.816-0.738
		c0.359-0.188,0.76-0.282,1.201-0.282c0.271,0,0.527,0.042,0.768,0.126s0.441,0.214,0.605,0.39c0.164,0.177,0.281,0.402,0.354,0.679
		c0.072,0.275,0.08,0.602,0.025,0.978l-0.504,3.66h-1.08l0.467-3.36c0.031-0.264,0.025-0.489-0.018-0.678
		c-0.045-0.188-0.115-0.34-0.217-0.456c-0.1-0.116-0.225-0.2-0.377-0.252s-0.312-0.078-0.48-0.078c-0.225,0-0.438,0.036-0.643,0.108
		c-0.203,0.072-0.387,0.186-0.551,0.342s-0.303,0.354-0.414,0.594c-0.113,0.24-0.193,0.524-0.24,0.853l-0.408,2.928h-1.08
		L2584.167,768.399z"/>
	<path style="fill:#8F9194;" d="M2591.187,771.64c-0.033,0.248-0.008,0.475,0.072,0.679c0.08,0.203,0.197,0.378,0.355,0.521
		c0.156,0.145,0.346,0.256,0.566,0.336s0.455,0.12,0.703,0.12c0.338,0,0.641-0.078,0.91-0.234c0.27-0.155,0.527-0.361,0.775-0.617
		l0.721,0.624c-0.705,0.775-1.596,1.163-2.676,1.163c-0.449,0-0.842-0.075-1.182-0.228s-0.619-0.362-0.834-0.63
		c-0.217-0.269-0.369-0.584-0.457-0.948s-0.1-0.758-0.035-1.182c0.055-0.424,0.184-0.818,0.383-1.183
		c0.201-0.363,0.451-0.68,0.75-0.947c0.301-0.269,0.641-0.479,1.021-0.63c0.379-0.152,0.781-0.229,1.205-0.229
		c0.504,0,0.918,0.088,1.242,0.264c0.324,0.177,0.578,0.406,0.762,0.69s0.301,0.604,0.348,0.96c0.049,0.356,0.049,0.718,0,1.086
		l-0.061,0.384H2591.187z M2594.737,770.776c0.025-0.24,0.016-0.46-0.023-0.66c-0.041-0.2-0.117-0.374-0.23-0.522
		c-0.111-0.147-0.266-0.264-0.459-0.348s-0.426-0.126-0.701-0.126c-0.266,0-0.516,0.05-0.748,0.149
		c-0.234,0.101-0.441,0.23-0.623,0.391s-0.328,0.338-0.441,0.534c-0.113,0.195-0.182,0.39-0.205,0.582H2594.737z"/>
	<path style="fill:#8F9194;" d="M2602.431,774.04c-0.064,0.432-0.195,0.826-0.391,1.182c-0.197,0.356-0.449,0.664-0.758,0.924
		c-0.309,0.261-0.666,0.462-1.07,0.606c-0.404,0.144-0.84,0.216-1.305,0.216c-0.545,0-1.035-0.076-1.467-0.228
		c-0.434-0.152-0.826-0.416-1.178-0.792l0.852-0.912c0.24,0.304,0.514,0.534,0.822,0.689c0.307,0.156,0.67,0.234,1.086,0.234
		c0.398,0,0.74-0.059,1.02-0.174c0.279-0.116,0.51-0.267,0.689-0.45c0.18-0.185,0.318-0.395,0.414-0.63
		c0.096-0.236,0.164-0.475,0.205-0.714l0.107-0.84h-0.037c-0.256,0.344-0.57,0.598-0.947,0.762c-0.375,0.164-0.76,0.246-1.152,0.246
		c-0.416,0-0.791-0.074-1.127-0.223c-0.336-0.147-0.615-0.352-0.834-0.611c-0.221-0.26-0.379-0.568-0.475-0.924
		c-0.096-0.356-0.111-0.742-0.049-1.158c0.057-0.416,0.18-0.806,0.367-1.17s0.426-0.683,0.713-0.954
		c0.289-0.272,0.623-0.484,1.002-0.636c0.381-0.152,0.791-0.229,1.23-0.229c0.385,0,0.746,0.084,1.086,0.252
		s0.594,0.404,0.762,0.708h0.025l0.107-0.816h1.08L2602.431,774.04z M2600.138,769.264c-0.287,0-0.555,0.05-0.797,0.15
		c-0.244,0.1-0.461,0.236-0.648,0.408c-0.189,0.172-0.342,0.38-0.463,0.624c-0.119,0.244-0.199,0.51-0.24,0.798
		c-0.088,0.576,0.012,1.038,0.301,1.386c0.287,0.348,0.721,0.522,1.295,0.522c0.576,0,1.057-0.175,1.441-0.522
		c0.383-0.348,0.619-0.81,0.707-1.386c0.041-0.288,0.035-0.554-0.018-0.798s-0.148-0.452-0.287-0.624
		c-0.141-0.172-0.318-0.309-0.535-0.408C2600.679,769.313,2600.427,769.264,2600.138,769.264z"/>
	<path style="fill:#8F9194;" d="M2604.843,768.399h1.08l-0.121,0.877h0.023c0.186-0.305,0.449-0.551,0.793-0.738
		c0.344-0.188,0.695-0.282,1.057-0.282c0.176,0,0.33,0.024,0.467,0.072l-0.215,1.164c-0.09-0.024-0.176-0.044-0.26-0.061
		c-0.084-0.016-0.17-0.023-0.258-0.023c-0.527,0-0.951,0.147-1.271,0.443c-0.32,0.297-0.523,0.756-0.611,1.38l-0.396,2.856h-1.08
		L2604.843,768.399z"/>
	<path style="fill:#8F9194;" d="M2608.394,771.244c0.057-0.416,0.189-0.805,0.396-1.164c0.209-0.36,0.469-0.676,0.781-0.948
		c0.311-0.271,0.66-0.486,1.049-0.642c0.389-0.156,0.795-0.234,1.219-0.234s0.807,0.078,1.152,0.234
		c0.344,0.155,0.633,0.37,0.869,0.642c0.236,0.272,0.406,0.588,0.51,0.948c0.104,0.359,0.129,0.748,0.072,1.164
		c-0.064,0.416-0.197,0.806-0.402,1.17c-0.203,0.364-0.461,0.68-0.773,0.948c-0.312,0.268-0.662,0.479-1.051,0.636
		c-0.387,0.156-0.793,0.233-1.217,0.233s-0.811-0.077-1.158-0.233s-0.639-0.368-0.871-0.636c-0.23-0.269-0.4-0.584-0.51-0.948
		C2608.353,772.05,2608.331,771.66,2608.394,771.244z M2609.546,771.244c-0.039,0.288-0.033,0.554,0.02,0.798
		c0.051,0.244,0.145,0.452,0.281,0.624s0.314,0.308,0.533,0.408c0.221,0.1,0.475,0.149,0.762,0.149c0.289,0,0.555-0.05,0.799-0.149
		c0.244-0.101,0.457-0.236,0.643-0.408c0.184-0.172,0.338-0.38,0.461-0.624c0.125-0.244,0.207-0.51,0.246-0.798
		c0.041-0.288,0.035-0.554-0.018-0.798s-0.148-0.452-0.287-0.624c-0.141-0.172-0.318-0.309-0.535-0.408
		c-0.215-0.101-0.467-0.15-0.756-0.15c-0.287,0-0.555,0.05-0.797,0.15c-0.244,0.1-0.461,0.236-0.648,0.408
		c-0.189,0.172-0.342,0.38-0.463,0.624C2609.667,770.69,2609.587,770.956,2609.546,771.244z"/>
	<path style="fill:#8F9194;" d="M2619.878,771.64c-0.031,0.248-0.008,0.475,0.072,0.679c0.08,0.203,0.199,0.378,0.355,0.521
		c0.156,0.145,0.346,0.256,0.566,0.336s0.455,0.12,0.705,0.12c0.338,0,0.641-0.078,0.91-0.234c0.268-0.155,0.527-0.361,0.775-0.617
		l0.719,0.624c-0.703,0.775-1.596,1.163-2.676,1.163c-0.447,0-0.842-0.075-1.182-0.228s-0.617-0.362-0.834-0.63
		c-0.215-0.269-0.367-0.584-0.455-0.948s-0.102-0.758-0.037-1.182c0.057-0.424,0.184-0.818,0.385-1.183
		c0.199-0.363,0.449-0.68,0.75-0.947c0.299-0.269,0.641-0.479,1.02-0.63c0.381-0.152,0.781-0.229,1.207-0.229
		c0.504,0,0.918,0.088,1.24,0.264c0.324,0.177,0.578,0.406,0.764,0.69c0.184,0.284,0.299,0.604,0.348,0.96
		c0.047,0.356,0.047,0.718,0,1.086l-0.061,0.384H2619.878z M2623.431,770.776c0.023-0.24,0.016-0.46-0.025-0.66
		c-0.039-0.2-0.115-0.374-0.229-0.522c-0.113-0.147-0.266-0.264-0.459-0.348s-0.428-0.126-0.701-0.126
		c-0.266,0-0.516,0.05-0.75,0.149c-0.232,0.101-0.441,0.23-0.621,0.391c-0.182,0.16-0.328,0.338-0.441,0.534
		c-0.113,0.195-0.182,0.39-0.205,0.582H2623.431z"/>
	<path style="fill:#8F9194;" d="M2629.022,769.828c-0.104-0.16-0.242-0.294-0.414-0.402c-0.172-0.107-0.395-0.162-0.666-0.162
		c-0.256,0-0.486,0.055-0.689,0.162c-0.205,0.108-0.318,0.267-0.342,0.474c-0.025,0.169,0.01,0.305,0.102,0.408
		c0.092,0.104,0.207,0.188,0.348,0.252c0.141,0.064,0.289,0.112,0.449,0.145s0.301,0.06,0.42,0.084
		c0.225,0.056,0.434,0.124,0.625,0.204s0.354,0.184,0.486,0.312c0.131,0.128,0.225,0.284,0.281,0.468
		c0.057,0.185,0.068,0.408,0.037,0.673c-0.049,0.319-0.154,0.594-0.318,0.821c-0.164,0.229-0.367,0.414-0.607,0.559
		c-0.238,0.144-0.502,0.248-0.785,0.312c-0.283,0.064-0.566,0.096-0.846,0.096c-0.473,0-0.875-0.071-1.207-0.216
		c-0.332-0.144-0.613-0.408-0.846-0.792l0.9-0.672c0.152,0.176,0.328,0.332,0.529,0.468c0.201,0.137,0.459,0.204,0.771,0.204
		c0.281,0,0.551-0.058,0.809-0.174s0.406-0.298,0.447-0.546c0.023-0.16-0.006-0.292-0.092-0.396
		c-0.084-0.104-0.191-0.186-0.324-0.245c-0.133-0.061-0.277-0.108-0.434-0.145c-0.158-0.036-0.291-0.065-0.404-0.09
		c-0.225-0.056-0.438-0.12-0.639-0.192c-0.201-0.071-0.373-0.168-0.518-0.288c-0.146-0.119-0.252-0.271-0.32-0.456
		c-0.068-0.184-0.082-0.411-0.043-0.684c0.041-0.296,0.139-0.554,0.295-0.773c0.156-0.221,0.346-0.402,0.57-0.547
		c0.223-0.144,0.471-0.252,0.744-0.323c0.271-0.072,0.539-0.108,0.803-0.108c0.385,0,0.742,0.072,1.074,0.216
		c0.332,0.145,0.578,0.384,0.738,0.72L2629.022,769.828z"/>
	<path style="fill:#8F9194;" d="M2637.687,769.828c-0.104-0.16-0.242-0.294-0.414-0.402c-0.172-0.107-0.395-0.162-0.666-0.162
		c-0.256,0-0.486,0.055-0.689,0.162c-0.205,0.108-0.318,0.267-0.342,0.474c-0.025,0.169,0.01,0.305,0.102,0.408
		c0.092,0.104,0.207,0.188,0.348,0.252c0.141,0.064,0.289,0.112,0.449,0.145s0.301,0.06,0.42,0.084
		c0.225,0.056,0.434,0.124,0.625,0.204s0.354,0.184,0.486,0.312c0.131,0.128,0.225,0.284,0.281,0.468
		c0.057,0.185,0.068,0.408,0.037,0.673c-0.049,0.319-0.154,0.594-0.318,0.821c-0.164,0.229-0.367,0.414-0.607,0.559
		c-0.238,0.144-0.502,0.248-0.785,0.312c-0.283,0.064-0.566,0.096-0.846,0.096c-0.473,0-0.875-0.071-1.207-0.216
		c-0.332-0.144-0.613-0.408-0.846-0.792l0.9-0.672c0.152,0.176,0.328,0.332,0.529,0.468c0.201,0.137,0.459,0.204,0.771,0.204
		c0.281,0,0.551-0.058,0.809-0.174s0.406-0.298,0.447-0.546c0.023-0.16-0.006-0.292-0.092-0.396
		c-0.084-0.104-0.191-0.186-0.324-0.245c-0.133-0.061-0.277-0.108-0.434-0.145c-0.158-0.036-0.291-0.065-0.404-0.09
		c-0.225-0.056-0.438-0.12-0.639-0.192c-0.201-0.071-0.373-0.168-0.518-0.288c-0.146-0.119-0.252-0.271-0.32-0.456
		c-0.068-0.184-0.082-0.411-0.043-0.684c0.041-0.296,0.139-0.554,0.295-0.773c0.156-0.221,0.346-0.402,0.57-0.547
		c0.223-0.144,0.471-0.252,0.744-0.323c0.271-0.072,0.539-0.108,0.803-0.108c0.385,0,0.742,0.072,1.074,0.216
		c0.332,0.145,0.578,0.384,0.738,0.72L2637.687,769.828z"/>
	<path style="fill:#8F9194;" d="M2639.521,771.244c0.057-0.416,0.189-0.805,0.396-1.164c0.209-0.36,0.469-0.676,0.781-0.948
		c0.311-0.271,0.66-0.486,1.049-0.642c0.389-0.156,0.795-0.234,1.219-0.234s0.807,0.078,1.152,0.234
		c0.344,0.155,0.633,0.37,0.869,0.642c0.236,0.272,0.406,0.588,0.51,0.948c0.104,0.359,0.129,0.748,0.072,1.164
		c-0.064,0.416-0.197,0.806-0.402,1.17c-0.203,0.364-0.461,0.68-0.773,0.948c-0.312,0.268-0.662,0.479-1.051,0.636
		c-0.387,0.156-0.793,0.233-1.217,0.233s-0.811-0.077-1.158-0.233s-0.639-0.368-0.871-0.636c-0.23-0.269-0.4-0.584-0.51-0.948
		C2639.479,772.05,2639.458,771.66,2639.521,771.244z M2640.673,771.244c-0.039,0.288-0.033,0.554,0.02,0.798
		c0.051,0.244,0.145,0.452,0.281,0.624s0.314,0.308,0.533,0.408c0.221,0.1,0.475,0.149,0.762,0.149c0.289,0,0.555-0.05,0.799-0.149
		c0.244-0.101,0.457-0.236,0.643-0.408c0.184-0.172,0.338-0.38,0.461-0.624c0.125-0.244,0.207-0.51,0.246-0.798
		c0.041-0.288,0.035-0.554-0.018-0.798s-0.148-0.452-0.287-0.624c-0.141-0.172-0.318-0.309-0.535-0.408
		c-0.215-0.101-0.467-0.15-0.756-0.15c-0.287,0-0.555,0.05-0.797,0.15c-0.244,0.1-0.461,0.236-0.648,0.408
		c-0.189,0.172-0.342,0.38-0.463,0.624C2640.794,770.69,2640.714,770.956,2640.673,771.244z"/>
	<path style="fill:#8F9194;" d="M2647.886,765.016h1.08l-1.271,9.072h-1.08L2647.886,765.016z"/>
	<path style="fill:#8F9194;" d="M2649.528,771.244c0.057-0.416,0.189-0.805,0.396-1.164c0.209-0.36,0.469-0.676,0.781-0.948
		c0.311-0.271,0.66-0.486,1.049-0.642c0.389-0.156,0.795-0.234,1.219-0.234s0.807,0.078,1.152,0.234
		c0.344,0.155,0.633,0.37,0.869,0.642c0.236,0.272,0.406,0.588,0.51,0.948c0.104,0.359,0.129,0.748,0.072,1.164
		c-0.064,0.416-0.197,0.806-0.402,1.17c-0.203,0.364-0.461,0.68-0.773,0.948c-0.312,0.268-0.662,0.479-1.051,0.636
		c-0.387,0.156-0.793,0.233-1.217,0.233s-0.811-0.077-1.158-0.233s-0.639-0.368-0.871-0.636c-0.23-0.269-0.4-0.584-0.51-0.948
		C2649.487,772.05,2649.466,771.66,2649.528,771.244z M2650.681,771.244c-0.039,0.288-0.033,0.554,0.02,0.798
		c0.051,0.244,0.145,0.452,0.281,0.624s0.314,0.308,0.533,0.408c0.221,0.1,0.475,0.149,0.762,0.149c0.289,0,0.555-0.05,0.799-0.149
		c0.244-0.101,0.457-0.236,0.643-0.408c0.184-0.172,0.338-0.38,0.461-0.624c0.125-0.244,0.207-0.51,0.246-0.798
		c0.041-0.288,0.035-0.554-0.018-0.798s-0.148-0.452-0.287-0.624c-0.141-0.172-0.318-0.309-0.535-0.408
		c-0.215-0.101-0.467-0.15-0.756-0.15c-0.287,0-0.555,0.05-0.797,0.15c-0.244,0.1-0.461,0.236-0.648,0.408
		c-0.189,0.172-0.342,0.38-0.463,0.624C2650.802,770.69,2650.722,770.956,2650.681,771.244z"/>
	<path style="fill:#8F9194;" d="M2660.665,768.399h1.08l-0.107,0.816h0.023c0.256-0.304,0.576-0.54,0.961-0.708
		c0.383-0.168,0.768-0.252,1.15-0.252c0.441,0,0.828,0.076,1.164,0.229c0.336,0.151,0.611,0.363,0.822,0.636
		c0.213,0.271,0.359,0.59,0.445,0.954c0.084,0.364,0.098,0.754,0.041,1.17c-0.064,0.424-0.189,0.817-0.379,1.182
		c-0.188,0.364-0.426,0.68-0.713,0.948c-0.289,0.268-0.621,0.478-0.996,0.63c-0.377,0.152-0.785,0.228-1.225,0.228
		c-0.408,0-0.779-0.086-1.115-0.258s-0.58-0.405-0.732-0.702h-0.023l-0.588,4.2h-1.08L2660.665,768.399z M2663.497,769.264
		c-0.287,0-0.555,0.05-0.799,0.15c-0.244,0.1-0.459,0.236-0.646,0.408c-0.189,0.172-0.342,0.38-0.463,0.624
		c-0.119,0.244-0.199,0.51-0.24,0.798c-0.039,0.288-0.033,0.554,0.018,0.798c0.053,0.244,0.146,0.452,0.283,0.624
		c0.135,0.172,0.314,0.308,0.533,0.408c0.221,0.1,0.475,0.149,0.762,0.149c0.289,0,0.555-0.05,0.799-0.149
		c0.244-0.101,0.457-0.236,0.643-0.408c0.184-0.172,0.338-0.38,0.461-0.624c0.125-0.244,0.207-0.51,0.246-0.798
		c0.041-0.288,0.035-0.554-0.018-0.798s-0.148-0.452-0.287-0.624c-0.141-0.172-0.318-0.309-0.535-0.408
		C2664.038,769.313,2663.784,769.264,2663.497,769.264z"/>
	<path style="fill:#8F9194;" d="M2667.925,769.096c0.344-0.279,0.727-0.49,1.146-0.63s0.83-0.21,1.23-0.21
		c0.416,0,0.768,0.052,1.055,0.156c0.289,0.104,0.518,0.244,0.686,0.42s0.279,0.378,0.336,0.605
		c0.055,0.229,0.066,0.467,0.035,0.715l-0.408,2.903c-0.031,0.2-0.057,0.384-0.072,0.552c-0.016,0.169-0.023,0.328-0.023,0.48
		h-0.961c0.01-0.144,0.02-0.288,0.031-0.432c0.012-0.145,0.029-0.288,0.053-0.433h-0.023c-0.295,0.368-0.617,0.628-0.965,0.78
		c-0.35,0.152-0.738,0.228-1.17,0.228c-0.266,0-0.512-0.035-0.738-0.107c-0.229-0.072-0.422-0.18-0.582-0.324
		c-0.16-0.144-0.279-0.322-0.355-0.534s-0.094-0.458-0.053-0.737c0.047-0.368,0.172-0.677,0.371-0.925
		c0.201-0.247,0.455-0.449,0.762-0.605c0.309-0.156,0.656-0.269,1.045-0.336c0.389-0.068,0.799-0.103,1.23-0.103h0.791l0.037-0.239
		c0.023-0.145,0.018-0.288-0.02-0.433c-0.035-0.144-0.102-0.273-0.197-0.39s-0.225-0.208-0.385-0.276
		c-0.16-0.067-0.355-0.102-0.588-0.102c-0.207,0-0.393,0.02-0.557,0.06s-0.312,0.09-0.445,0.15c-0.131,0.06-0.256,0.13-0.371,0.21
		c-0.117,0.08-0.23,0.156-0.342,0.228L2667.925,769.096z M2670.659,771.352c-0.258,0-0.521,0.015-0.795,0.042
		c-0.273,0.028-0.527,0.082-0.76,0.162s-0.43,0.192-0.59,0.336c-0.16,0.145-0.258,0.328-0.289,0.553
		c-0.049,0.328,0.027,0.563,0.229,0.708c0.201,0.144,0.49,0.216,0.867,0.216c0.297,0,0.557-0.05,0.777-0.15
		c0.221-0.1,0.408-0.229,0.561-0.39s0.271-0.338,0.355-0.534s0.139-0.39,0.162-0.582l0.061-0.36H2670.659z"/>
	<path style="fill:#8F9194;" d="M2674.226,768.399h1.08l-0.119,0.877h0.023c0.184-0.305,0.447-0.551,0.791-0.738
		c0.344-0.188,0.697-0.282,1.057-0.282c0.176,0,0.332,0.024,0.469,0.072l-0.217,1.164c-0.088-0.024-0.174-0.044-0.258-0.061
		c-0.084-0.016-0.17-0.023-0.258-0.023c-0.527,0-0.953,0.147-1.271,0.443c-0.32,0.297-0.525,0.756-0.613,1.38l-0.395,2.856h-1.08
		L2674.226,768.399z"/>
	<path style="fill:#8F9194;" d="M2678.593,769.096c0.344-0.279,0.727-0.49,1.146-0.63s0.83-0.21,1.23-0.21
		c0.416,0,0.768,0.052,1.055,0.156c0.289,0.104,0.518,0.244,0.686,0.42s0.279,0.378,0.336,0.605
		c0.055,0.229,0.066,0.467,0.035,0.715l-0.408,2.903c-0.031,0.2-0.057,0.384-0.072,0.552c-0.016,0.169-0.023,0.328-0.023,0.48
		h-0.961c0.01-0.144,0.02-0.288,0.031-0.432c0.012-0.145,0.029-0.288,0.053-0.433h-0.023c-0.295,0.368-0.617,0.628-0.965,0.78
		c-0.35,0.152-0.738,0.228-1.17,0.228c-0.266,0-0.512-0.035-0.738-0.107c-0.229-0.072-0.422-0.18-0.582-0.324
		c-0.16-0.144-0.279-0.322-0.355-0.534s-0.094-0.458-0.053-0.737c0.047-0.368,0.172-0.677,0.371-0.925
		c0.201-0.247,0.455-0.449,0.762-0.605c0.309-0.156,0.656-0.269,1.045-0.336c0.389-0.068,0.799-0.103,1.23-0.103h0.791l0.037-0.239
		c0.023-0.145,0.018-0.288-0.02-0.433c-0.035-0.144-0.102-0.273-0.197-0.39s-0.225-0.208-0.385-0.276
		c-0.16-0.067-0.355-0.102-0.588-0.102c-0.207,0-0.393,0.02-0.557,0.06s-0.312,0.09-0.445,0.15c-0.131,0.06-0.256,0.13-0.371,0.21
		c-0.117,0.08-0.23,0.156-0.342,0.228L2678.593,769.096z M2681.327,771.352c-0.258,0-0.521,0.015-0.795,0.042
		c-0.273,0.028-0.527,0.082-0.76,0.162s-0.43,0.192-0.59,0.336c-0.16,0.145-0.258,0.328-0.289,0.553
		c-0.049,0.328,0.027,0.563,0.229,0.708c0.201,0.144,0.49,0.216,0.867,0.216c0.297,0,0.557-0.05,0.777-0.15
		c0.221-0.1,0.408-0.229,0.561-0.39s0.271-0.338,0.355-0.534s0.139-0.39,0.162-0.582l0.061-0.36H2681.327z"/>
	<path style="fill:#8F9194;" d="M2692.741,776.824h-1.08l0.504-3.553h-0.023c-0.232,0.297-0.539,0.53-0.924,0.702
		s-0.779,0.258-1.188,0.258c-0.441,0-0.826-0.075-1.158-0.228s-0.607-0.362-0.822-0.63c-0.217-0.269-0.369-0.584-0.457-0.948
		s-0.1-0.758-0.035-1.182c0.057-0.416,0.178-0.806,0.365-1.17c0.189-0.364,0.426-0.683,0.715-0.954
		c0.287-0.272,0.621-0.484,1.002-0.636c0.379-0.152,0.789-0.229,1.23-0.229c0.383,0,0.746,0.084,1.086,0.252
		s0.594,0.404,0.762,0.708h0.023l0.107-0.816h1.08L2692.741,776.824z M2690.858,769.264c-0.289,0-0.555,0.05-0.799,0.15
		c-0.244,0.1-0.461,0.236-0.648,0.408s-0.342,0.38-0.461,0.624c-0.121,0.244-0.201,0.51-0.24,0.798
		c-0.041,0.288-0.035,0.554,0.018,0.798s0.146,0.452,0.281,0.624c0.137,0.172,0.314,0.308,0.535,0.408
		c0.219,0.1,0.475,0.149,0.762,0.149s0.555-0.05,0.799-0.149c0.242-0.101,0.457-0.236,0.641-0.408s0.338-0.38,0.463-0.624
		c0.123-0.244,0.205-0.51,0.246-0.798c0.039-0.288,0.033-0.554-0.018-0.798c-0.053-0.244-0.148-0.452-0.289-0.624
		s-0.318-0.309-0.533-0.408C2691.397,769.313,2691.146,769.264,2690.858,769.264z"/>
	<path style="fill:#8F9194;" d="M2699.81,774.088h-1.08l0.121-0.876h-0.025c-0.184,0.304-0.455,0.55-0.816,0.738
		c-0.359,0.188-0.76,0.281-1.199,0.281c-0.279,0-0.537-0.042-0.773-0.126s-0.438-0.214-0.6-0.39
		c-0.164-0.176-0.283-0.402-0.355-0.678c-0.072-0.276-0.084-0.603-0.035-0.979l0.516-3.66h1.08l-0.469,3.36
		c-0.039,0.264-0.037,0.49,0.006,0.678c0.045,0.188,0.119,0.341,0.223,0.456c0.104,0.116,0.232,0.2,0.385,0.252
		c0.15,0.053,0.311,0.078,0.479,0.078c0.449,0,0.846-0.149,1.189-0.45c0.344-0.3,0.564-0.781,0.66-1.445l0.408-2.929h1.08
		L2699.81,774.088z"/>
	<path style="fill:#8F9194;" d="M2702.581,771.64c-0.031,0.248-0.008,0.475,0.072,0.679c0.08,0.203,0.199,0.378,0.355,0.521
		c0.156,0.145,0.346,0.256,0.566,0.336s0.455,0.12,0.705,0.12c0.338,0,0.641-0.078,0.91-0.234c0.268-0.155,0.527-0.361,0.775-0.617
		l0.719,0.624c-0.703,0.775-1.596,1.163-2.676,1.163c-0.447,0-0.842-0.075-1.182-0.228s-0.617-0.362-0.834-0.63
		c-0.215-0.269-0.367-0.584-0.455-0.948s-0.102-0.758-0.037-1.182c0.057-0.424,0.184-0.818,0.385-1.183
		c0.199-0.363,0.449-0.68,0.75-0.947c0.299-0.269,0.641-0.479,1.02-0.63c0.381-0.152,0.781-0.229,1.207-0.229
		c0.504,0,0.918,0.088,1.24,0.264c0.324,0.177,0.578,0.406,0.764,0.69c0.184,0.284,0.299,0.604,0.348,0.96
		c0.047,0.356,0.047,0.718,0,1.086l-0.061,0.384H2702.581z M2706.134,770.776c0.023-0.24,0.016-0.46-0.025-0.66
		c-0.039-0.2-0.115-0.374-0.229-0.522c-0.113-0.147-0.266-0.264-0.459-0.348s-0.428-0.126-0.701-0.126
		c-0.266,0-0.516,0.05-0.75,0.149c-0.232,0.101-0.441,0.23-0.621,0.391c-0.182,0.16-0.328,0.338-0.441,0.534
		c-0.113,0.195-0.182,0.39-0.205,0.582H2706.134z"/>
	<path style="fill:#8F9194;" d="M2715.062,769.828c-0.104-0.16-0.242-0.294-0.414-0.402c-0.172-0.107-0.395-0.162-0.666-0.162
		c-0.256,0-0.486,0.055-0.689,0.162c-0.205,0.108-0.318,0.267-0.342,0.474c-0.025,0.169,0.01,0.305,0.102,0.408
		c0.092,0.104,0.207,0.188,0.348,0.252c0.141,0.064,0.289,0.112,0.449,0.145s0.301,0.06,0.42,0.084
		c0.225,0.056,0.434,0.124,0.625,0.204s0.354,0.184,0.486,0.312c0.131,0.128,0.225,0.284,0.281,0.468
		c0.057,0.185,0.068,0.408,0.037,0.673c-0.049,0.319-0.154,0.594-0.318,0.821c-0.164,0.229-0.367,0.414-0.607,0.559
		c-0.238,0.144-0.502,0.248-0.785,0.312c-0.283,0.064-0.566,0.096-0.846,0.096c-0.473,0-0.875-0.071-1.207-0.216
		c-0.332-0.144-0.613-0.408-0.846-0.792l0.9-0.672c0.152,0.176,0.328,0.332,0.529,0.468c0.201,0.137,0.459,0.204,0.771,0.204
		c0.281,0,0.551-0.058,0.809-0.174s0.406-0.298,0.447-0.546c0.023-0.16-0.006-0.292-0.092-0.396
		c-0.084-0.104-0.191-0.186-0.324-0.245c-0.133-0.061-0.277-0.108-0.434-0.145c-0.158-0.036-0.291-0.065-0.404-0.09
		c-0.225-0.056-0.438-0.12-0.639-0.192c-0.201-0.071-0.373-0.168-0.518-0.288c-0.146-0.119-0.252-0.271-0.32-0.456
		c-0.068-0.184-0.082-0.411-0.043-0.684c0.041-0.296,0.139-0.554,0.295-0.773c0.156-0.221,0.346-0.402,0.57-0.547
		c0.223-0.144,0.471-0.252,0.744-0.323c0.271-0.072,0.539-0.108,0.803-0.108c0.385,0,0.742,0.072,1.074,0.216
		c0.332,0.145,0.578,0.384,0.738,0.72L2715.062,769.828z"/>
	<path style="fill:#8F9194;" d="M2717.917,771.64c-0.031,0.248-0.008,0.475,0.072,0.679c0.08,0.203,0.199,0.378,0.355,0.521
		c0.156,0.145,0.346,0.256,0.566,0.336s0.455,0.12,0.705,0.12c0.338,0,0.641-0.078,0.91-0.234c0.268-0.155,0.527-0.361,0.775-0.617
		l0.719,0.624c-0.703,0.775-1.596,1.163-2.676,1.163c-0.447,0-0.842-0.075-1.182-0.228s-0.617-0.362-0.834-0.63
		c-0.215-0.269-0.367-0.584-0.455-0.948s-0.102-0.758-0.037-1.182c0.057-0.424,0.184-0.818,0.385-1.183
		c0.199-0.363,0.449-0.68,0.75-0.947c0.299-0.269,0.641-0.479,1.02-0.63c0.381-0.152,0.781-0.229,1.207-0.229
		c0.504,0,0.918,0.088,1.24,0.264c0.324,0.177,0.578,0.406,0.764,0.69c0.184,0.284,0.299,0.604,0.348,0.96
		c0.047,0.356,0.047,0.718,0,1.086l-0.061,0.384H2717.917z M2721.47,770.776c0.023-0.24,0.016-0.46-0.025-0.66
		c-0.039-0.2-0.115-0.374-0.229-0.522c-0.113-0.147-0.266-0.264-0.459-0.348s-0.428-0.126-0.701-0.126
		c-0.266,0-0.516,0.05-0.75,0.149c-0.232,0.101-0.441,0.23-0.621,0.391c-0.182,0.16-0.328,0.338-0.441,0.534
		c-0.113,0.195-0.182,0.39-0.205,0.582H2721.47z"/>
	<path style="fill:#8F9194;" d="M2726.894,768.399h1.248l1.092,4.356l2.244-4.356h1.152l-3.025,5.688h-1.188L2726.894,768.399z"/>
	<path style="fill:#8F9194;" d="M2733.925,771.64c-0.031,0.248-0.008,0.475,0.072,0.679c0.08,0.203,0.199,0.378,0.355,0.521
		c0.156,0.145,0.346,0.256,0.566,0.336s0.455,0.12,0.705,0.12c0.338,0,0.641-0.078,0.91-0.234c0.268-0.155,0.527-0.361,0.775-0.617
		l0.719,0.624c-0.703,0.775-1.596,1.163-2.676,1.163c-0.447,0-0.842-0.075-1.182-0.228s-0.617-0.362-0.834-0.63
		c-0.215-0.269-0.367-0.584-0.455-0.948s-0.102-0.758-0.037-1.182c0.057-0.424,0.184-0.818,0.385-1.183
		c0.199-0.363,0.449-0.68,0.75-0.947c0.299-0.269,0.641-0.479,1.02-0.63c0.381-0.152,0.781-0.229,1.207-0.229
		c0.504,0,0.918,0.088,1.24,0.264c0.324,0.177,0.578,0.406,0.764,0.69c0.184,0.284,0.299,0.604,0.348,0.96
		c0.047,0.356,0.047,0.718,0,1.086l-0.061,0.384H2733.925z M2737.478,770.776c0.023-0.24,0.016-0.46-0.025-0.66
		c-0.039-0.2-0.115-0.374-0.229-0.522c-0.113-0.147-0.266-0.264-0.459-0.348s-0.428-0.126-0.701-0.126
		c-0.266,0-0.516,0.05-0.75,0.149c-0.232,0.101-0.441,0.23-0.621,0.391c-0.182,0.16-0.328,0.338-0.441,0.534
		c-0.113,0.195-0.182,0.39-0.205,0.582H2737.478z"/>
	<path style="fill:#8F9194;" d="M2740.177,769.096c0.344-0.279,0.727-0.49,1.146-0.63s0.83-0.21,1.23-0.21
		c0.416,0,0.768,0.052,1.055,0.156c0.289,0.104,0.518,0.244,0.686,0.42s0.279,0.378,0.336,0.605
		c0.055,0.229,0.066,0.467,0.035,0.715l-0.408,2.903c-0.031,0.2-0.057,0.384-0.072,0.552c-0.016,0.169-0.023,0.328-0.023,0.48
		h-0.961c0.01-0.144,0.02-0.288,0.031-0.432c0.012-0.145,0.029-0.288,0.053-0.433h-0.023c-0.295,0.368-0.617,0.628-0.965,0.78
		c-0.35,0.152-0.738,0.228-1.17,0.228c-0.266,0-0.512-0.035-0.738-0.107c-0.229-0.072-0.422-0.18-0.582-0.324
		c-0.16-0.144-0.279-0.322-0.355-0.534s-0.094-0.458-0.053-0.737c0.047-0.368,0.172-0.677,0.371-0.925
		c0.201-0.247,0.455-0.449,0.762-0.605c0.309-0.156,0.656-0.269,1.045-0.336c0.389-0.068,0.799-0.103,1.23-0.103h0.791l0.037-0.239
		c0.023-0.145,0.018-0.288-0.02-0.433c-0.035-0.144-0.102-0.273-0.197-0.39s-0.225-0.208-0.385-0.276
		c-0.16-0.067-0.355-0.102-0.588-0.102c-0.207,0-0.393,0.02-0.557,0.06s-0.312,0.09-0.445,0.15c-0.131,0.06-0.256,0.13-0.371,0.21
		c-0.117,0.08-0.23,0.156-0.342,0.228L2740.177,769.096z M2742.911,771.352c-0.258,0-0.521,0.015-0.795,0.042
		c-0.273,0.028-0.527,0.082-0.76,0.162s-0.43,0.192-0.59,0.336c-0.16,0.145-0.258,0.328-0.289,0.553
		c-0.049,0.328,0.027,0.563,0.229,0.708c0.201,0.144,0.49,0.216,0.867,0.216c0.297,0,0.557-0.05,0.777-0.15
		c0.221-0.1,0.408-0.229,0.561-0.39s0.271-0.338,0.355-0.534s0.139-0.39,0.162-0.582l0.061-0.36H2742.911z"/>
	<path style="fill:#8F9194;" d="M2750.161,771.64c-0.033,0.248-0.008,0.475,0.072,0.679c0.08,0.203,0.197,0.378,0.355,0.521
		c0.156,0.145,0.346,0.256,0.566,0.336s0.455,0.12,0.703,0.12c0.338,0,0.641-0.078,0.91-0.234c0.27-0.155,0.527-0.361,0.775-0.617
		l0.721,0.624c-0.705,0.775-1.596,1.163-2.676,1.163c-0.449,0-0.842-0.075-1.182-0.228s-0.619-0.362-0.834-0.63
		c-0.217-0.269-0.369-0.584-0.457-0.948s-0.1-0.758-0.035-1.182c0.055-0.424,0.184-0.818,0.383-1.183
		c0.201-0.363,0.451-0.68,0.75-0.947c0.301-0.269,0.641-0.479,1.021-0.63c0.379-0.152,0.781-0.229,1.205-0.229
		c0.504,0,0.918,0.088,1.242,0.264c0.324,0.177,0.578,0.406,0.762,0.69s0.301,0.604,0.348,0.96c0.049,0.356,0.049,0.718,0,1.086
		l-0.061,0.384H2750.161z M2753.712,770.776c0.025-0.24,0.016-0.46-0.023-0.66c-0.041-0.2-0.117-0.374-0.23-0.522
		c-0.111-0.147-0.266-0.264-0.459-0.348s-0.426-0.126-0.701-0.126c-0.266,0-0.516,0.05-0.748,0.149
		c-0.234,0.101-0.441,0.23-0.623,0.391s-0.328,0.338-0.441,0.534c-0.113,0.195-0.182,0.39-0.205,0.582H2753.712z"/>
	<path style="fill:#8F9194;" d="M2757.05,765.016h1.08l-1.271,9.072h-1.08L2757.05,765.016z"/>
	<path style="fill:#8F9194;" d="M2763.265,765.016h1.08l-1.271,9.072h-1.08L2763.265,765.016z"/>
	<path style="fill:#8F9194;" d="M2764.909,771.244c0.057-0.416,0.188-0.805,0.396-1.164c0.207-0.36,0.467-0.676,0.779-0.948
		c0.312-0.271,0.662-0.486,1.051-0.642c0.387-0.156,0.793-0.234,1.217-0.234s0.809,0.078,1.152,0.234
		c0.344,0.155,0.635,0.37,0.871,0.642c0.234,0.272,0.404,0.588,0.51,0.948c0.104,0.359,0.127,0.748,0.072,1.164
		c-0.064,0.416-0.199,0.806-0.402,1.17c-0.205,0.364-0.463,0.68-0.775,0.948c-0.311,0.268-0.662,0.479-1.049,0.636
		c-0.389,0.156-0.795,0.233-1.219,0.233s-0.809-0.077-1.158-0.233c-0.348-0.156-0.637-0.368-0.869-0.636
		c-0.232-0.269-0.402-0.584-0.51-0.948C2764.866,772.05,2764.845,771.66,2764.909,771.244z M2766.062,771.244
		c-0.041,0.288-0.035,0.554,0.018,0.798s0.146,0.452,0.281,0.624c0.137,0.172,0.314,0.308,0.535,0.408
		c0.219,0.1,0.475,0.149,0.762,0.149s0.555-0.05,0.799-0.149c0.242-0.101,0.457-0.236,0.641-0.408s0.338-0.38,0.463-0.624
		c0.123-0.244,0.205-0.51,0.246-0.798c0.039-0.288,0.033-0.554-0.018-0.798c-0.053-0.244-0.148-0.452-0.289-0.624
		s-0.318-0.309-0.533-0.408c-0.217-0.101-0.469-0.15-0.756-0.15c-0.289,0-0.555,0.05-0.799,0.15c-0.244,0.1-0.461,0.236-0.648,0.408
		s-0.342,0.38-0.461,0.624C2766.181,770.69,2766.101,770.956,2766.062,771.244z"/>
	<path style="fill:#8F9194;" d="M2777.63,774.04c-0.064,0.432-0.195,0.826-0.391,1.182c-0.197,0.356-0.449,0.664-0.758,0.924
		c-0.309,0.261-0.666,0.462-1.07,0.606c-0.404,0.144-0.84,0.216-1.305,0.216c-0.545,0-1.035-0.076-1.467-0.228
		c-0.434-0.152-0.826-0.416-1.178-0.792l0.852-0.912c0.24,0.304,0.514,0.534,0.822,0.689c0.307,0.156,0.67,0.234,1.086,0.234
		c0.398,0,0.74-0.059,1.02-0.174c0.279-0.116,0.51-0.267,0.689-0.45c0.18-0.185,0.318-0.395,0.414-0.63
		c0.096-0.236,0.164-0.475,0.205-0.714l0.107-0.84h-0.037c-0.256,0.344-0.57,0.598-0.947,0.762c-0.375,0.164-0.76,0.246-1.152,0.246
		c-0.416,0-0.791-0.074-1.127-0.223c-0.336-0.147-0.615-0.352-0.834-0.611c-0.221-0.26-0.379-0.568-0.475-0.924
		c-0.096-0.356-0.111-0.742-0.049-1.158c0.057-0.416,0.18-0.806,0.367-1.17s0.426-0.683,0.713-0.954
		c0.289-0.272,0.623-0.484,1.002-0.636c0.381-0.152,0.791-0.229,1.23-0.229c0.385,0,0.746,0.084,1.086,0.252
		s0.594,0.404,0.762,0.708h0.025l0.107-0.816h1.08L2777.63,774.04z M2775.337,769.264c-0.287,0-0.555,0.05-0.797,0.15
		c-0.244,0.1-0.461,0.236-0.648,0.408c-0.189,0.172-0.342,0.38-0.463,0.624c-0.119,0.244-0.199,0.51-0.24,0.798
		c-0.088,0.576,0.012,1.038,0.301,1.386c0.287,0.348,0.721,0.522,1.295,0.522c0.576,0,1.057-0.175,1.441-0.522
		c0.383-0.348,0.619-0.81,0.707-1.386c0.041-0.288,0.035-0.554-0.018-0.798s-0.148-0.452-0.287-0.624
		c-0.141-0.172-0.318-0.309-0.535-0.408C2775.878,769.313,2775.626,769.264,2775.337,769.264z"/>
	<path style="fill:#8F9194;" d="M2779.368,771.244c0.057-0.416,0.189-0.805,0.396-1.164c0.209-0.36,0.469-0.676,0.781-0.948
		c0.311-0.271,0.66-0.486,1.049-0.642c0.389-0.156,0.795-0.234,1.219-0.234s0.807,0.078,1.152,0.234
		c0.344,0.155,0.633,0.37,0.869,0.642c0.236,0.272,0.406,0.588,0.51,0.948c0.104,0.359,0.129,0.748,0.072,1.164
		c-0.064,0.416-0.197,0.806-0.402,1.17c-0.203,0.364-0.461,0.68-0.773,0.948c-0.312,0.268-0.662,0.479-1.051,0.636
		c-0.387,0.156-0.793,0.233-1.217,0.233s-0.811-0.077-1.158-0.233s-0.639-0.368-0.871-0.636c-0.23-0.269-0.4-0.584-0.51-0.948
		C2779.327,772.05,2779.306,771.66,2779.368,771.244z M2780.521,771.244c-0.039,0.288-0.033,0.554,0.02,0.798
		c0.051,0.244,0.145,0.452,0.281,0.624s0.314,0.308,0.533,0.408c0.221,0.1,0.475,0.149,0.762,0.149c0.289,0,0.555-0.05,0.799-0.149
		c0.244-0.101,0.457-0.236,0.643-0.408c0.184-0.172,0.338-0.38,0.461-0.624c0.125-0.244,0.207-0.51,0.246-0.798
		c0.041-0.288,0.035-0.554-0.018-0.798s-0.148-0.452-0.287-0.624c-0.141-0.172-0.318-0.309-0.535-0.408
		c-0.215-0.101-0.467-0.15-0.756-0.15c-0.287,0-0.555,0.05-0.797,0.15c-0.244,0.1-0.461,0.236-0.648,0.408
		c-0.189,0.172-0.342,0.38-0.463,0.624C2780.642,770.69,2780.562,770.956,2780.521,771.244z"/>
	<path style="fill:#8F9194;" d="M2790.853,771.64c-0.031,0.248-0.008,0.475,0.072,0.679c0.08,0.203,0.199,0.378,0.355,0.521
		c0.156,0.145,0.346,0.256,0.566,0.336s0.455,0.12,0.705,0.12c0.338,0,0.641-0.078,0.91-0.234c0.268-0.155,0.527-0.361,0.775-0.617
		l0.719,0.624c-0.703,0.775-1.596,1.163-2.676,1.163c-0.447,0-0.842-0.075-1.182-0.228s-0.617-0.362-0.834-0.63
		c-0.215-0.269-0.367-0.584-0.455-0.948s-0.102-0.758-0.037-1.182c0.057-0.424,0.184-0.818,0.385-1.183
		c0.199-0.363,0.449-0.68,0.75-0.947c0.299-0.269,0.641-0.479,1.02-0.63c0.381-0.152,0.781-0.229,1.207-0.229
		c0.504,0,0.918,0.088,1.24,0.264c0.324,0.177,0.578,0.406,0.764,0.69c0.184,0.284,0.299,0.604,0.348,0.96
		c0.047,0.356,0.047,0.718,0,1.086l-0.061,0.384H2790.853z M2794.405,770.776c0.023-0.24,0.016-0.46-0.025-0.66
		c-0.039-0.2-0.115-0.374-0.229-0.522c-0.113-0.147-0.266-0.264-0.459-0.348s-0.428-0.126-0.701-0.126
		c-0.266,0-0.516,0.05-0.75,0.149c-0.232,0.101-0.441,0.23-0.621,0.391c-0.182,0.16-0.328,0.338-0.441,0.534
		c-0.113,0.195-0.182,0.39-0.205,0.582H2794.405z"/>
	<path style="fill:#8F9194;" d="M2797.177,768.399h1.08l-0.119,0.877h0.023c0.184-0.305,0.455-0.551,0.816-0.738
		c0.359-0.188,0.76-0.282,1.199-0.282c0.271,0,0.527,0.042,0.768,0.126s0.443,0.214,0.607,0.39c0.162,0.177,0.281,0.402,0.354,0.679
		c0.072,0.275,0.08,0.602,0.023,0.978l-0.504,3.66h-1.08l0.469-3.36c0.031-0.264,0.025-0.489-0.02-0.678
		c-0.043-0.188-0.115-0.34-0.215-0.456s-0.227-0.2-0.379-0.252s-0.311-0.078-0.479-0.078c-0.225,0-0.439,0.036-0.643,0.108
		c-0.205,0.072-0.389,0.186-0.553,0.342s-0.301,0.354-0.414,0.594c-0.111,0.24-0.191,0.524-0.24,0.853l-0.406,2.928h-1.08
		L2797.177,768.399z"/>
	<path style="fill:#8F9194;" d="M2807.665,765.016h1.08l-0.588,4.2h0.023c0.232-0.296,0.539-0.53,0.924-0.702
		s0.779-0.258,1.188-0.258c0.441,0,0.826,0.076,1.158,0.229c0.332,0.151,0.607,0.361,0.822,0.63
		c0.217,0.268,0.365,0.584,0.451,0.947c0.084,0.364,0.098,0.759,0.041,1.183c-0.064,0.424-0.188,0.815-0.371,1.176
		c-0.186,0.36-0.42,0.676-0.709,0.948c-0.287,0.271-0.621,0.483-1.002,0.636s-0.791,0.228-1.23,0.228
		c-0.383,0-0.746-0.084-1.086-0.252s-0.594-0.403-0.762-0.708h-0.023l-0.107,0.816h-1.08L2807.665,765.016z M2809.464,773.224
		c0.289,0,0.555-0.05,0.799-0.149c0.244-0.101,0.457-0.236,0.643-0.408c0.184-0.172,0.338-0.38,0.461-0.624
		c0.125-0.244,0.207-0.51,0.246-0.798c0.041-0.288,0.035-0.554-0.018-0.798s-0.148-0.452-0.287-0.624
		c-0.141-0.172-0.318-0.309-0.535-0.408c-0.215-0.101-0.469-0.15-0.756-0.15s-0.555,0.05-0.799,0.15
		c-0.244,0.1-0.459,0.236-0.646,0.408c-0.189,0.172-0.342,0.38-0.463,0.624c-0.119,0.244-0.199,0.51-0.24,0.798
		c-0.039,0.288-0.033,0.554,0.018,0.798c0.053,0.244,0.146,0.452,0.283,0.624c0.135,0.172,0.314,0.308,0.533,0.408
		C2808.923,773.174,2809.177,773.224,2809.464,773.224z"/>
	<path style="fill:#8F9194;" d="M2815.081,765.016h1.08l-1.271,9.072h-1.08L2815.081,765.016z"/>
	<path style="fill:#8F9194;" d="M2817.325,769.096c0.344-0.279,0.725-0.49,1.145-0.63s0.83-0.21,1.23-0.21
		c0.416,0,0.768,0.052,1.057,0.156c0.287,0.104,0.516,0.244,0.684,0.42s0.279,0.378,0.336,0.605
		c0.057,0.229,0.068,0.467,0.037,0.715l-0.408,2.903c-0.033,0.2-0.057,0.384-0.072,0.552c-0.016,0.169-0.025,0.328-0.025,0.48
		h-0.959c0.008-0.144,0.018-0.288,0.029-0.432c0.012-0.145,0.031-0.288,0.055-0.433h-0.023c-0.297,0.368-0.619,0.628-0.967,0.78
		s-0.738,0.228-1.17,0.228c-0.264,0-0.51-0.035-0.738-0.107s-0.422-0.18-0.582-0.324c-0.16-0.144-0.277-0.322-0.354-0.534
		s-0.094-0.458-0.055-0.737c0.049-0.368,0.172-0.677,0.373-0.925c0.199-0.247,0.453-0.449,0.762-0.605s0.656-0.269,1.043-0.336
		c0.389-0.068,0.799-0.103,1.23-0.103h0.793l0.035-0.239c0.023-0.145,0.018-0.288-0.018-0.433c-0.035-0.144-0.102-0.273-0.197-0.39
		c-0.098-0.116-0.225-0.208-0.385-0.276c-0.16-0.067-0.355-0.102-0.588-0.102c-0.209,0-0.395,0.02-0.559,0.06
		s-0.312,0.09-0.443,0.15c-0.133,0.06-0.256,0.13-0.373,0.21c-0.115,0.08-0.229,0.156-0.342,0.228L2817.325,769.096z
		 M2820.058,771.352c-0.256,0-0.521,0.015-0.795,0.042c-0.273,0.028-0.525,0.082-0.758,0.162c-0.234,0.08-0.432,0.192-0.592,0.336
		c-0.16,0.145-0.256,0.328-0.289,0.553c-0.047,0.328,0.029,0.563,0.229,0.708c0.201,0.144,0.49,0.216,0.869,0.216
		c0.297,0,0.555-0.05,0.777-0.15c0.221-0.1,0.406-0.229,0.559-0.39c0.154-0.16,0.271-0.338,0.355-0.534s0.139-0.39,0.164-0.582
		l0.059-0.36H2820.058z"/>
	<path style="fill:#8F9194;" d="M2823.624,768.399h1.08l-0.119,0.877h0.023c0.184-0.305,0.455-0.551,0.816-0.738
		c0.359-0.188,0.76-0.282,1.199-0.282c0.271,0,0.527,0.042,0.768,0.126s0.443,0.214,0.607,0.39c0.162,0.177,0.281,0.402,0.354,0.679
		c0.072,0.275,0.08,0.602,0.023,0.978l-0.504,3.66h-1.08l0.469-3.36c0.031-0.264,0.025-0.489-0.02-0.678
		c-0.043-0.188-0.115-0.34-0.215-0.456s-0.227-0.2-0.379-0.252s-0.311-0.078-0.479-0.078c-0.225,0-0.439,0.036-0.643,0.108
		c-0.205,0.072-0.389,0.186-0.553,0.342s-0.301,0.354-0.414,0.594c-0.111,0.24-0.191,0.524-0.24,0.853l-0.406,2.928h-1.08
		L2823.624,768.399z"/>
	<path style="fill:#8F9194;" d="M2834.151,769.912c-0.168-0.208-0.354-0.366-0.557-0.475c-0.203-0.107-0.457-0.161-0.76-0.161
		c-0.297,0-0.561,0.054-0.797,0.161c-0.234,0.108-0.441,0.257-0.615,0.444c-0.176,0.188-0.318,0.404-0.426,0.648
		s-0.182,0.498-0.221,0.762c-0.041,0.264-0.033,0.514,0.023,0.75s0.152,0.442,0.287,0.618s0.309,0.313,0.52,0.414
		c0.213,0.1,0.457,0.149,0.736,0.149c0.303,0,0.57-0.054,0.801-0.162c0.232-0.107,0.451-0.266,0.658-0.474l0.658,0.768
		c-0.328,0.312-0.686,0.536-1.074,0.673c-0.389,0.136-0.789,0.203-1.205,0.203c-0.441,0-0.832-0.071-1.176-0.216
		c-0.346-0.144-0.629-0.346-0.854-0.605c-0.223-0.26-0.383-0.572-0.479-0.937c-0.098-0.363-0.113-0.766-0.049-1.206
		c0.057-0.439,0.182-0.844,0.379-1.212c0.195-0.367,0.443-0.684,0.742-0.948c0.301-0.264,0.643-0.47,1.027-0.617
		c0.383-0.148,0.799-0.223,1.248-0.223c0.416,0,0.801,0.074,1.158,0.223c0.355,0.147,0.652,0.374,0.893,0.678L2834.151,769.912z"/>
	<path style="fill:#8F9194;" d="M2835.407,771.244c0.057-0.416,0.189-0.805,0.396-1.164c0.209-0.36,0.469-0.676,0.781-0.948
		c0.311-0.271,0.66-0.486,1.049-0.642c0.389-0.156,0.795-0.234,1.219-0.234s0.807,0.078,1.152,0.234
		c0.344,0.155,0.633,0.37,0.869,0.642c0.236,0.272,0.406,0.588,0.51,0.948c0.104,0.359,0.129,0.748,0.072,1.164
		c-0.064,0.416-0.197,0.806-0.402,1.17c-0.203,0.364-0.461,0.68-0.773,0.948c-0.312,0.268-0.662,0.479-1.051,0.636
		c-0.387,0.156-0.793,0.233-1.217,0.233s-0.811-0.077-1.158-0.233s-0.639-0.368-0.871-0.636c-0.23-0.269-0.4-0.584-0.51-0.948
		C2835.366,772.05,2835.345,771.66,2835.407,771.244z M2836.56,771.244c-0.039,0.288-0.033,0.554,0.02,0.798
		c0.051,0.244,0.145,0.452,0.281,0.624s0.314,0.308,0.533,0.408c0.221,0.1,0.475,0.149,0.762,0.149c0.289,0,0.555-0.05,0.799-0.149
		c0.244-0.101,0.457-0.236,0.643-0.408c0.184-0.172,0.338-0.38,0.461-0.624c0.125-0.244,0.207-0.51,0.246-0.798
		c0.041-0.288,0.035-0.554-0.018-0.798s-0.148-0.452-0.287-0.624c-0.141-0.172-0.318-0.309-0.535-0.408
		c-0.215-0.101-0.467-0.15-0.756-0.15c-0.287,0-0.555,0.05-0.797,0.15c-0.244,0.1-0.461,0.236-0.648,0.408
		c-0.189,0.172-0.342,0.38-0.463,0.624C2836.681,770.69,2836.601,770.956,2836.56,771.244z"/>
	<path style="fill:#8F9194;" d="M2841.685,775.552c0.312-0.408,0.592-0.8,0.84-1.176s0.461-0.758,0.643-1.146
		c0.18-0.388,0.33-0.789,0.449-1.206c0.119-0.415,0.217-0.863,0.287-1.344c0.121-0.88,0.111-1.731-0.029-2.556
		s-0.414-1.588-0.822-2.292l0.781-0.48c0.455,0.752,0.771,1.58,0.947,2.484s0.195,1.853,0.061,2.844
		c-0.137,0.92-0.416,1.84-0.84,2.76c-0.426,0.92-0.977,1.776-1.656,2.568L2841.685,775.552z"/>
</g>
<rect x="1371.899" y="382.112" style="fill:#281C51;" width="73.922" height="73.922"/>
<rect x="1485.862" y="382.112" style="fill:#C4C5C7;" width="73.922" height="73.922"/>
<rect x="1600.514" y="382.112" style="fill:#EF5592;" width="73.922" height="73.922"/>
<rect x="1715.165" y="382.112" style="fill:#6DCFF6;" width="73.922" height="73.922"/>
<text transform="matrix(1 0 0 1 1485.8623 477.5947)"><tspan x="0" y="0" style="font-family:'Avenir-MediumOblique'; font-size:12;">C: 0</tspan><tspan x="0" y="14.4" style="font-family:'Avenir-MediumOblique'; font-size:12;">M: 0</tspan><tspan x="0" y="28.8" style="font-family:'Avenir-MediumOblique'; font-size:12;">Y: 0</tspan><tspan x="0" y="43.2" style="font-family:'Avenir-MediumOblique'; font-size:12;">K: 26</tspan><tspan x="0" y="72" style="font-family:'Avenir-MediumOblique'; font-size:12;">R: 195 </tspan><tspan x="0" y="86.4" style="font-family:'Avenir-MediumOblique'; font-size:12;">G: 197</tspan><tspan x="0" y="100.8" style="font-family:'Avenir-MediumOblique'; font-size:12;">B: 199</tspan></text>
<text transform="matrix(1 0 0 1 1600.5137 477.5947)"><tspan x="0" y="0" style="font-family:'Avenir-MediumOblique'; font-size:12;">C: 0</tspan><tspan x="0" y="14.4" style="font-family:'Avenir-MediumOblique'; font-size:12;">M: 82</tspan><tspan x="0" y="28.8" style="font-family:'Avenir-MediumOblique'; font-size:12;">Y: 10</tspan><tspan x="0" y="43.2" style="font-family:'Avenir-MediumOblique'; font-size:12;">K: 0</tspan><tspan x="0" y="72" style="font-family:'Avenir-MediumOblique'; font-size:12;">R: 239 </tspan><tspan x="0" y="86.4" style="font-family:'Avenir-MediumOblique'; font-size:12;">G: 85</tspan><tspan x="0" y="100.8" style="font-family:'Avenir-MediumOblique'; font-size:12;">B: 145</tspan></text>
<text transform="matrix(1 0 0 1 1715.165 477.5947)"><tspan x="0" y="0" style="font-family:'Avenir-MediumOblique'; font-size:12;">C: 50</tspan><tspan x="0" y="14.4" style="font-family:'Avenir-MediumOblique'; font-size:12;">M: 0</tspan><tspan x="0" y="28.8" style="font-family:'Avenir-MediumOblique'; font-size:12;">Y: 0</tspan><tspan x="0" y="43.2" style="font-family:'Avenir-MediumOblique'; font-size:12;">K: 0</tspan><tspan x="0" y="72" style="font-family:'Avenir-MediumOblique'; font-size:12;">R: 109</tspan><tspan x="0" y="86.4" style="font-family:'Avenir-MediumOblique'; font-size:12;">G: 207</tspan><tspan x="0" y="100.8" style="font-family:'Avenir-MediumOblique'; font-size:12;">B: 246</tspan></text>
<text transform="matrix(1 0 0 1 1371.8994 477.5947)"><tspan x="0" y="0" style="font-family:'Avenir-MediumOblique'; font-size:12;">C: 96</tspan><tspan x="0" y="14.4" style="font-family:'Avenir-MediumOblique'; font-size:12;">M: 100</tspan><tspan x="0" y="28.8" style="font-family:'Avenir-MediumOblique'; font-size:12;">Y: 35</tspan><tspan x="0" y="43.2" style="font-family:'Avenir-MediumOblique'; font-size:12;">K: 34</tspan><tspan x="0" y="72" style="font-family:'Avenir-MediumOblique'; font-size:12;">R: 40 </tspan><tspan x="0" y="86.4" style="font-family:'Avenir-MediumOblique'; font-size:12;">G: 28</tspan><tspan x="0" y="100.8" style="font-family:'Avenir-MediumOblique'; font-size:12;">B: 81</tspan></text>
<rect x="2325.442" y="382.112" style="fill:#281C51;" width="73.922" height="73.922"/>
<rect x="2439.405" y="382.112" style="fill:#939598;" width="73.922" height="73.922"/>
<rect x="2554.056" y="382.112" style="fill:#EF5592;" width="73.922" height="73.922"/>
<rect x="2668.708" y="382.112" style="fill:#6DCFF6;" width="73.922" height="73.922"/>
<text transform="matrix(1 0 0 1 2439.4053 477.5947)"><tspan x="0" y="0" style="font-family:'Avenir-MediumOblique'; font-size:12;">C: 0</tspan><tspan x="0" y="14.4" style="font-family:'Avenir-MediumOblique'; font-size:12;">M: 0</tspan><tspan x="0" y="28.8" style="font-family:'Avenir-MediumOblique'; font-size:12;">Y: 0</tspan><tspan x="0" y="43.2" style="font-family:'Avenir-MediumOblique'; font-size:12;">K: 50</tspan><tspan x="0" y="72" style="font-family:'Avenir-MediumOblique'; font-size:12;">R: 147</tspan><tspan x="0" y="86.4" style="font-family:'Avenir-MediumOblique'; font-size:12;">G: 149</tspan><tspan x="0" y="100.8" style="font-family:'Avenir-MediumOblique'; font-size:12;">B: 151</tspan></text>
<rect x="2325.442" y="1349.563" style="fill:#FFFFFF;stroke:#9FA1A4;stroke-width:0.75;stroke-miterlimit:10;" width="73.922" height="73.922"/>
<text transform="matrix(1 0 0 1 2325.4424 1445.0459)"><tspan x="0" y="0" style="font-family:'Avenir-MediumOblique'; font-size:12;">C: 0</tspan><tspan x="0" y="14.4" style="font-family:'Avenir-MediumOblique'; font-size:12;">M: 0</tspan><tspan x="0" y="28.8" style="font-family:'Avenir-MediumOblique'; font-size:12;">Y: 0</tspan><tspan x="0" y="43.2" style="font-family:'Avenir-MediumOblique'; font-size:12;">K: 0</tspan><tspan x="0" y="72" style="font-family:'Avenir-MediumOblique'; font-size:12;">R: 255</tspan><tspan x="0" y="86.4" style="font-family:'Avenir-MediumOblique'; font-size:12;">G: 255</tspan><tspan x="0" y="100.8" style="font-family:'Avenir-MediumOblique'; font-size:12;">B: 255</tspan></text>
<text transform="matrix(1 0 0 1 2324.7295 477.5947)"><tspan x="0" y="0" style="font-family:'Avenir-MediumOblique'; font-size:12;">C: 96</tspan><tspan x="0" y="14.4" style="font-family:'Avenir-MediumOblique'; font-size:12;">M: 100</tspan><tspan x="0" y="28.8" style="font-family:'Avenir-MediumOblique'; font-size:12;">Y: 35</tspan><tspan x="0" y="43.2" style="font-family:'Avenir-MediumOblique'; font-size:12;">K: 34</tspan><tspan x="0" y="72" style="font-family:'Avenir-MediumOblique'; font-size:12;">R: 40 </tspan><tspan x="0" y="86.4" style="font-family:'Avenir-MediumOblique'; font-size:12;">G: 28</tspan><tspan x="0" y="100.8" style="font-family:'Avenir-MediumOblique'; font-size:12;">B: 81</tspan></text>
<text transform="matrix(1 0 0 1 2553.3438 477.5947)"><tspan x="0" y="0" style="font-family:'Avenir-MediumOblique'; font-size:12;">C: 0</tspan><tspan x="0" y="14.4" style="font-family:'Avenir-MediumOblique'; font-size:12;">M: 82</tspan><tspan x="0" y="28.8" style="font-family:'Avenir-MediumOblique'; font-size:12;">Y: 10</tspan><tspan x="0" y="43.2" style="font-family:'Avenir-MediumOblique'; font-size:12;">K: 0</tspan><tspan x="0" y="72" style="font-family:'Avenir-MediumOblique'; font-size:12;">R: 239 </tspan><tspan x="0" y="86.4" style="font-family:'Avenir-MediumOblique'; font-size:12;">G: 85</tspan><tspan x="0" y="100.8" style="font-family:'Avenir-MediumOblique'; font-size:12;">B: 145</tspan></text>
<text transform="matrix(1 0 0 1 2667.9951 477.5947)"><tspan x="0" y="0" style="font-family:'Avenir-MediumOblique'; font-size:12;">C: 50</tspan><tspan x="0" y="14.4" style="font-family:'Avenir-MediumOblique'; font-size:12;">M: 0</tspan><tspan x="0" y="28.8" style="font-family:'Avenir-MediumOblique'; font-size:12;">Y: 0</tspan><tspan x="0" y="43.2" style="font-family:'Avenir-MediumOblique'; font-size:12;">K: 0</tspan><tspan x="0" y="72" style="font-family:'Avenir-MediumOblique'; font-size:12;">R: 109</tspan><tspan x="0" y="86.4" style="font-family:'Avenir-MediumOblique'; font-size:12;">G: 207</tspan><tspan x="0" y="100.8" style="font-family:'Avenir-MediumOblique'; font-size:12;">B: 246</tspan></text>
<rect x="1371.899" y="1350.526" style="fill:#281C51;" width="73.922" height="73.922"/>
<text transform="matrix(1 0 0 1 1371.8994 1446.0088)"><tspan x="0" y="0" style="font-family:'Avenir-MediumOblique'; font-size:12;">C: 96</tspan><tspan x="0" y="14.4" style="font-family:'Avenir-MediumOblique'; font-size:12;">M: 100</tspan><tspan x="0" y="28.8" style="font-family:'Avenir-MediumOblique'; font-size:12;">Y: 35</tspan><tspan x="0" y="43.2" style="font-family:'Avenir-MediumOblique'; font-size:12;">K: 34</tspan><tspan x="0" y="72" style="font-family:'Avenir-MediumOblique'; font-size:12;">R: 40 </tspan><tspan x="0" y="86.4" style="font-family:'Avenir-MediumOblique'; font-size:12;">G: 28</tspan><tspan x="0" y="100.8" style="font-family:'Avenir-MediumOblique'; font-size:12;">B: 81</tspan></text>
<g>
	<g>
		<path style="fill:#EF5592;" d="M384.522,79v7.938h-7.938V79h-7.937v-7.895h-7.938v-7.896h-7.936v-7.896h-7.94v-7.896h0.003v-7.895
			h-0.003v-7.896h7.94v-7.896h7.936v-7.895h7.938V7.938h7.937V0h7.938v7.938v7.896h-7.938v7.895h-7.937v7.896h-7.938v7.896h-7.936
			v7.895h7.936v7.896h7.938v7.896h7.937v7.896h7.938V79z M448.018,47.418v7.895h-7.938v7.896h-7.936v7.896h-7.938V79h-7.937v7.938
			h-7.938V79v-7.895h7.938v-7.896h7.937v-7.896h7.938v-7.895h7.936v-7.896h-7.936v-7.896h-7.938V23.73h-7.937v-7.896h-7.938V7.938V0
			h7.938v7.938h7.937v7.896h7.938v7.896h7.936v7.895h7.938v7.896V47.418z"/>
		<g>
			<g>
				<g>
					<g>
						<path style="fill:#281C51;" d="M41.352,85.393C18.55,85.393,0,66.842,0,44.041C0,21.242,18.55,2.689,41.352,2.689
							c12.313,0,23.9,5.434,31.787,14.904c2.277,2.736,1.906,6.801-0.831,9.08c-2.737,2.275-6.798,1.904-9.079-0.83
							C57.8,19.322,49.826,15.582,41.352,15.582c-15.693,0-28.459,12.768-28.459,28.459c0,15.693,12.766,28.459,28.459,28.459
							c7.991,0,15.391-3.223,20.837-9.076c2.426-2.609,6.506-2.754,9.113-0.328c2.605,2.426,2.752,6.504,0.328,9.109
							C63.831,80.588,52.795,85.393,41.352,85.393z"/>
					</g>
				</g>
				<g>
					<g>
						<path style="fill:#281C51;" d="M114.196,75.639c-17.423,0-31.597-14.176-31.597-31.598c0-17.42,14.174-31.594,31.597-31.594
							c17.422,0,31.596,14.174,31.596,31.594C145.792,61.463,131.618,75.639,114.196,75.639z M114.196,25.34
							c-10.313,0-18.704,8.391-18.704,18.701c0,10.314,8.391,18.703,18.704,18.703s18.703-8.389,18.703-18.703
							C132.899,33.73,124.51,25.34,114.196,25.34z"/>
					</g>
				</g>
				<g>
					<g>
						<path style="fill:#281C51;" d="M311.491,85.393c-1.926,0-3.794-0.863-5.042-2.426l-45.101-56.555v52.535
							c0,3.561-2.885,6.445-6.446,6.445c-3.56,0-6.446-2.885-6.446-6.445V7.988c0-2.738,1.732-5.18,4.318-6.084
							c2.585-0.902,5.458-0.076,7.169,2.064l45.1,56.557V9.316c0-3.559,2.887-6.445,6.446-6.445c3.561,0,6.446,2.887,6.446,6.445
							v69.631c0,2.738-1.731,5.18-4.316,6.084C312.92,85.275,312.204,85.393,311.491,85.393z"/>
					</g>
				</g>
				<path style="fill:#281C51;" d="M193.837,2.904c-1.393-0.141-2.812-0.215-4.219-0.215h-23.526c-3.56,0-6.447,2.887-6.447,6.447
					v69.811c0,3.561,2.888,6.445,6.447,6.445c3.561,0,6.446-2.885,6.446-6.445V15.582h17.08c0.974,0,1.955,0.051,2.917,0.148
					c14.562,1.479,25.543,13.65,25.543,28.311c0,15.693-12.768,28.459-28.46,28.459h-3.143c-3.56,0-6.446,2.887-6.446,6.447
					s2.887,6.445,6.446,6.445h3.143c22.801,0,41.353-18.551,41.353-41.352C230.971,22.738,215.007,5.053,193.837,2.904z"/>
			</g>
			<g>
				<g>
					<path style="fill:#939598;" d="M160.396,96.354h2.963l2.604,8.512l2.819-8.549h2.371l2.819,8.549l2.604-8.512h2.892
						l-4.293,12.66h-2.406l-2.838-8.225l-2.837,8.225h-2.407L160.396,96.354z"/>
					<path style="fill:#939598;" d="M192.289,96.354h9.482v2.459h-6.735v2.551h5.927v2.461h-5.927v2.639h6.825v2.461h-9.572V96.354z
						"/>
					<path style="fill:#939598;" d="M215.095,96.354h5.837c1.437,0,2.567,0.395,3.286,1.113c0.574,0.574,0.862,1.275,0.862,2.137
						v0.035c0,1.42-0.755,2.209-1.652,2.713c1.454,0.557,2.353,1.4,2.353,3.088v0.037c0,2.299-1.868,3.447-4.705,3.447h-5.98V96.354
						z M220.339,101.436c1.221,0,1.993-0.395,1.993-1.33v-0.035c0-0.826-0.646-1.293-1.813-1.293h-2.73v2.658H220.339z
						 M221.075,106.5c1.221,0,1.957-0.432,1.957-1.365V105.1c0-0.846-0.628-1.365-2.047-1.365h-3.197v2.766H221.075z"/>
					<path style="fill:#939598;" d="M238.834,96.354h2.766v10.057h6.269v2.514h-9.034V96.354z"/>
					<path style="fill:#939598;" d="M265.034,96.264h2.551l5.387,12.66h-2.891l-1.149-2.818h-5.316l-1.149,2.818h-2.819
						L265.034,96.264z M267.944,103.662l-1.671-4.076l-1.671,4.076H267.944z"/>
					<path style="fill:#939598;" d="M285.685,96.354h5.837c1.437,0,2.567,0.395,3.286,1.113c0.574,0.574,0.862,1.275,0.862,2.137
						v0.035c0,1.42-0.755,2.209-1.652,2.713c1.454,0.557,2.353,1.4,2.353,3.088v0.037c0,2.299-1.867,3.447-4.705,3.447h-5.98V96.354
						z M290.929,101.436c1.221,0,1.993-0.395,1.993-1.33v-0.035c0-0.826-0.646-1.293-1.813-1.293h-2.73v2.658H290.929z
						 M291.665,106.5c1.221,0,1.957-0.432,1.957-1.365V105.1c0-0.846-0.628-1.365-2.047-1.365h-3.197v2.766H291.665z"/>
					<path style="fill:#939598;" d="M308.562,107.092l1.635-1.957c1.131,0.934,2.316,1.527,3.754,1.527
						c1.131,0,1.812-0.449,1.812-1.186v-0.037c0-0.699-0.43-1.059-2.531-1.598c-2.533-0.646-4.167-1.348-4.167-3.844v-0.035
						c0-2.281,1.832-3.789,4.399-3.789c1.832,0,3.395,0.574,4.67,1.598l-1.437,2.084c-1.113-0.773-2.209-1.24-3.269-1.24
						s-1.616,0.484-1.616,1.096v0.035c0,0.826,0.538,1.096,2.712,1.652c2.55,0.666,3.986,1.582,3.986,3.771v0.037
						c0,2.496-1.903,3.896-4.615,3.896C311.991,109.104,310.07,108.439,308.562,107.092z"/>
				</g>
			</g>
		</g>
	</g>
	<rect x="384.521" y="23.73" style="fill:#6DCFF6;" width="23.813" height="7.895"/>
	<rect x="376.584" y="39.521" style="fill:#6DCFF6;" width="39.684" height="7.895"/>
	<rect x="384.521" y="55.312" style="fill:#6DCFF6;" width="23.813" height="7.896"/>
</g>
</svg>
